<?xml version="1.0" encoding="UTF-8"?>
<svg xmlns="http://www.w3.org/2000/svg" xmlns:xlink="http://www.w3.org/1999/xlink" width="696pt" height="500pt" viewBox="0 0 696 500" version="1.1">
<g id="surface1">
<path style=" stroke:none;fill-rule:nonzero;fill:rgb(15.325928%,26.531982%,62.736511%);fill-opacity:1;" d="M 513.9375 291.804688 L 513.9375 263.578125 C 513.9375 262 515.214844 260.722656 516.796875 260.722656 C 518.371094 260.722656 519.65625 262 519.65625 263.578125 L 519.65625 291.804688 C 519.65625 293.382812 518.371094 294.660156 516.796875 294.660156 C 515.214844 294.660156 513.9375 293.382812 513.9375 291.804688 "/>
<path style=" stroke:none;fill-rule:nonzero;fill:rgb(15.325928%,26.531982%,62.736511%);fill-opacity:1;" d="M 529.820312 286.261719 L 529.820312 278 C 529.820312 276.417969 531.101562 275.140625 532.683594 275.140625 C 534.261719 275.140625 535.535156 276.417969 535.535156 278 L 535.535156 286.261719 C 535.535156 287.839844 534.261719 289.117188 532.683594 289.117188 C 531.101562 289.117188 529.820312 287.839844 529.820312 286.261719 "/>
<path style=" stroke:none;fill-rule:nonzero;fill:rgb(15.325928%,26.531982%,62.736511%);fill-opacity:1;" d="M 521.71875 286.261719 L 521.71875 276.09375 C 521.71875 274.515625 523 273.234375 524.578125 273.234375 C 526.15625 273.234375 527.4375 274.515625 527.4375 276.09375 L 527.4375 286.261719 C 527.4375 287.839844 526.15625 289.117188 524.578125 289.117188 C 523 289.117188 521.71875 287.839844 521.71875 286.261719 "/>
<path style=" stroke:none;fill-rule:nonzero;fill:rgb(15.325928%,26.531982%,62.736511%);fill-opacity:1;" d="M 510.273438 304.785156 C 508.285156 302.171875 507.542969 299.703125 507.382812 299.15625 L 505.480469 292.800781 C 505.199219 291.871094 505.40625 290.875 506.03125 290.136719 L 513.65625 281.085938 C 514.671875 279.875 516.476562 279.722656 517.6875 280.738281 C 518.890625 281.753906 519.050781 283.558594 518.03125 284.765625 L 511.398438 292.636719 L 512.863281 297.511719 L 512.886719 297.597656 L 512.890625 297.609375 C 512.890625 297.613281 512.894531 297.621094 512.894531 297.628906 C 512.90625 297.667969 512.929688 297.738281 512.960938 297.832031 C 513.023438 298.023438 513.128906 298.316406 513.285156 298.679688 C 513.59375 299.398438 514.097656 300.375 514.8125 301.308594 C 516.3125 303.191406 518.347656 304.875 522.101562 304.90625 C 522.457031 304.90625 522.824219 304.890625 523.214844 304.855469 L 523.464844 304.847656 L 533.472656 304.847656 C 535.578125 304.84375 537.285156 303.140625 537.285156 301.03125 L 537.285156 279.585938 L 537.289062 279.585938 C 537.289062 278.011719 538.566406 276.730469 540.144531 276.730469 C 541.722656 276.730469 543.003906 278.011719 543.003906 279.585938 L 543.003906 301.03125 C 543.003906 306.296875 538.738281 310.5625 533.472656 310.566406 L 523.601562 310.566406 C 523.085938 310.605469 522.589844 310.628906 522.101562 310.628906 C 522.070312 310.628906 522.039062 310.628906 522.007812 310.628906 C 516.300781 310.628906 512.378906 307.605469 510.273438 304.785156 "/>
<path style=" stroke:none;fill-rule:nonzero;fill:rgb(15.325928%,26.531982%,62.736511%);fill-opacity:1;" d="M 589.996094 273.894531 C 587.832031 271.050781 587.144531 268.382812 587.074219 268.164062 L 587.058594 268.085938 L 585.152344 259.824219 C 584.980469 259.078125 585.117188 258.28125 585.527344 257.640625 L 593.152344 245.726562 C 594.003906 244.398438 595.769531 244.011719 597.101562 244.863281 C 598.433594 245.714844 598.816406 247.480469 597.972656 248.8125 L 590.992188 259.710938 L 592.609375 266.71875 L 592.613281 266.726562 C 592.613281 266.730469 592.613281 266.734375 592.617188 266.738281 C 592.625 266.777344 592.648438 266.847656 592.679688 266.945312 C 592.742188 267.132812 592.851562 267.429688 593.007812 267.789062 C 593.3125 268.507812 593.816406 269.480469 594.535156 270.421875 C 596.035156 272.304688 598.070312 273.984375 601.824219 274.015625 C 602.179688 274.015625 602.546875 274.003906 602.933594 273.964844 L 603.1875 273.957031 L 613.195312 273.957031 C 615.300781 273.953125 617.003906 272.25 617.007812 270.144531 L 617.007812 245.839844 C 617.007812 244.257812 618.289062 242.980469 619.867188 242.980469 C 621.445312 242.980469 622.726562 244.257812 622.726562 245.839844 L 622.726562 270.144531 C 622.722656 275.40625 618.460938 279.671875 613.195312 279.675781 L 603.300781 279.675781 C 602.796875 279.714844 602.300781 279.734375 601.824219 279.734375 C 601.789062 279.734375 601.757812 279.734375 601.730469 279.734375 C 596.019531 279.734375 592.097656 276.714844 589.996094 273.894531 "/>
<path style=" stroke:none;fill-rule:nonzero;fill:rgb(15.325928%,26.531982%,62.736511%);fill-opacity:1;" d="M 593.65625 255.480469 L 593.65625 233.644531 C 593.65625 232.0625 594.9375 230.785156 596.515625 230.785156 C 598.09375 230.785156 599.371094 232.0625 599.371094 233.644531 L 599.371094 255.480469 C 599.371094 257.058594 598.09375 258.339844 596.515625 258.339844 C 594.9375 258.339844 593.65625 257.058594 593.65625 255.480469 "/>
<path style=" stroke:none;fill-rule:nonzero;fill:rgb(15.325928%,26.531982%,62.736511%);fill-opacity:1;" d="M 609.539062 255.53125 L 609.539062 233.960938 C 609.539062 232.378906 610.820312 231.097656 612.398438 231.097656 C 613.980469 231.097656 615.257812 232.378906 615.257812 233.960938 L 615.257812 255.53125 C 615.257812 257.113281 613.980469 258.390625 612.398438 258.390625 C 610.820312 258.390625 609.539062 257.113281 609.539062 255.53125 "/>
<path style=" stroke:none;fill-rule:nonzero;fill:rgb(15.325928%,26.531982%,62.736511%);fill-opacity:1;" d="M 601.441406 255.5 L 601.441406 228.238281 C 601.441406 226.664062 602.722656 225.382812 604.296875 225.382812 C 605.878906 225.382812 607.15625 226.664062 607.15625 228.238281 L 607.15625 255.5 C 607.15625 257.074219 605.878906 258.359375 604.296875 258.359375 C 602.722656 258.359375 601.441406 257.074219 601.441406 255.5 "/>
<path style=" stroke:none;fill-rule:nonzero;fill:rgb(15.325928%,26.531982%,62.736511%);fill-opacity:1;" d="M 554.113281 274.101562 L 554.113281 245.9375 C 554.113281 244.359375 555.390625 243.078125 556.96875 243.078125 C 558.550781 243.078125 559.828125 244.359375 559.828125 245.9375 L 559.828125 274.101562 C 559.828125 275.679688 558.550781 276.957031 556.96875 276.957031 C 555.390625 276.957031 554.113281 275.679688 554.113281 274.101562 "/>
<path style=" stroke:none;fill-rule:nonzero;fill:rgb(15.325928%,26.531982%,62.736511%);fill-opacity:1;" d="M 559.828125 292.921875 L 559.199219 292.851562 C 559.066406 292.820312 557.921875 292.5625 556.433594 291.871094 C 554.960938 291.167969 553.078125 290.050781 551.671875 288.027344 L 551.480469 287.703125 L 541 267.054688 C 540.28125 265.644531 540.84375 263.921875 542.253906 263.210938 C 543.660156 262.496094 545.382812 263.054688 546.097656 264.464844 L 556.488281 284.929688 C 556.984375 285.585938 557.839844 286.195312 558.679688 286.601562 C 559.296875 286.910156 559.878906 287.105469 560.203125 287.203125 L 573.652344 287.203125 C 575.757812 287.199219 577.460938 285.496094 577.460938 283.394531 L 577.460938 261.949219 L 577.464844 261.949219 C 577.464844 260.367188 578.742188 259.089844 580.320312 259.089844 C 581.898438 259.089844 583.179688 260.367188 583.179688 261.949219 L 583.179688 283.394531 C 583.179688 288.65625 578.914062 292.921875 573.652344 292.921875 L 559.828125 292.921875 "/>
<path style=" stroke:none;fill-rule:nonzero;fill:rgb(15.325928%,26.531982%,62.736511%);fill-opacity:1;" d="M 569.996094 268.617188 L 569.996094 260.359375 C 569.996094 258.777344 571.273438 257.5 572.855469 257.5 C 574.433594 257.5 575.714844 258.777344 575.714844 260.359375 L 575.714844 268.617188 C 575.714844 270.199219 574.433594 271.476562 572.855469 271.476562 C 571.273438 271.476562 569.996094 270.199219 569.996094 268.617188 "/>
<path style=" stroke:none;fill-rule:nonzero;fill:rgb(15.325928%,26.531982%,62.736511%);fill-opacity:1;" d="M 561.894531 268.617188 L 561.894531 258.449219 C 561.894531 256.871094 563.175781 255.59375 564.753906 255.59375 C 566.328125 255.59375 567.609375 256.871094 567.609375 258.449219 L 567.609375 268.617188 C 567.609375 270.199219 566.328125 271.476562 564.753906 271.476562 C 563.175781 271.476562 561.894531 270.199219 561.894531 268.617188 "/>
<path style=" stroke:none;fill-rule:nonzero;fill:rgb(50%,79.998779%,15.684509%);fill-opacity:1;" d="M 521.265625 250.4375 C 521.265625 252.449219 519.632812 254.085938 517.617188 254.085938 C 515.601562 254.085938 513.96875 252.449219 513.96875 250.4375 C 513.96875 248.421875 515.601562 246.789062 517.617188 246.789062 C 519.632812 246.789062 521.265625 248.421875 521.265625 250.4375 "/>
<path style=" stroke:none;fill-rule:nonzero;fill:rgb(50%,79.998779%,15.684509%);fill-opacity:1;" d="M 560.1875 233.757812 C 560.1875 235.773438 558.554688 237.40625 556.539062 237.40625 C 554.523438 237.40625 552.890625 235.773438 552.890625 233.757812 C 552.890625 231.742188 554.523438 230.109375 556.539062 230.109375 C 558.554688 230.109375 560.1875 231.742188 560.1875 233.757812 "/>
<path style=" stroke:none;fill-rule:nonzero;fill:rgb(50%,79.998779%,15.684509%);fill-opacity:1;" d="M 569.914062 233.757812 C 569.914062 235.773438 568.285156 237.40625 566.269531 237.40625 C 564.253906 237.40625 562.621094 235.773438 562.621094 233.757812 C 562.621094 231.742188 564.253906 230.109375 566.269531 230.109375 C 568.285156 230.109375 569.914062 231.742188 569.914062 233.757812 "/>
<path style=" stroke:none;fill-rule:nonzero;fill:rgb(50%,79.998779%,15.684509%);fill-opacity:1;" d="M 599.109375 216.382812 C 599.109375 218.394531 597.476562 220.03125 595.460938 220.03125 C 593.441406 220.03125 591.8125 218.394531 591.8125 216.382812 C 591.8125 214.367188 593.441406 212.730469 595.460938 212.730469 C 597.476562 212.730469 599.109375 214.367188 599.109375 216.382812 "/>
<path style=" stroke:none;fill-rule:nonzero;fill:rgb(50%,79.998779%,15.684509%);fill-opacity:1;" d="M 608.316406 216.382812 C 608.316406 218.394531 606.683594 220.03125 604.667969 220.03125 C 602.652344 220.03125 601.019531 218.394531 601.019531 216.382812 C 601.019531 214.367188 602.652344 212.730469 604.667969 212.730469 C 606.683594 212.730469 608.316406 214.367188 608.316406 216.382812 "/>
<path style=" stroke:none;fill-rule:nonzero;fill:rgb(50%,79.998779%,15.684509%);fill-opacity:1;" d="M 617.527344 216.382812 C 617.527344 218.394531 615.894531 220.03125 613.878906 220.03125 C 611.863281 220.03125 610.230469 218.394531 610.230469 216.382812 C 610.230469 214.367188 611.863281 212.730469 613.878906 212.730469 C 615.894531 212.730469 617.527344 214.367188 617.527344 216.382812 "/>
<path style="fill:none;stroke-width:22.3531;stroke-linecap:round;stroke-linejoin:round;stroke:rgb(15.325928%,26.531982%,62.736511%);stroke-opacity:1;stroke-miterlimit:4;" d="M 5246.445312 2497.34375 L 5491.640625 2497.34375 " transform="matrix(0.1,0,0,-0.1,0,500)"/>
<path style="fill:none;stroke-width:22.3531;stroke-linecap:round;stroke-linejoin:round;stroke:rgb(15.325928%,26.531982%,62.736511%);stroke-opacity:1;stroke-miterlimit:4;" d="M 5151.875 2667.65625 L 5491.640625 2667.65625 " transform="matrix(0.1,0,0,-0.1,0,500)"/>
<path style="fill:none;stroke-width:22.3531;stroke-linecap:round;stroke-linejoin:round;stroke:rgb(15.325928%,26.531982%,62.736511%);stroke-opacity:1;stroke-miterlimit:4;" d="M 5739.882812 2667.65625 L 5898.242188 2667.65625 " transform="matrix(0.1,0,0,-0.1,0,500)"/>
<path style="fill:none;stroke-width:22.3531;stroke-linecap:round;stroke-linejoin:round;stroke:rgb(15.325928%,26.531982%,62.736511%);stroke-opacity:1;stroke-miterlimit:4;" d="M 5148.789062 2834.453125 L 5887.8125 2834.453125 " transform="matrix(0.1,0,0,-0.1,0,500)"/>
<path style=" stroke:none;fill-rule:nonzero;fill:rgb(15.325928%,26.531982%,62.736511%);fill-opacity:1;" d="M 77.875 247.320312 C 77.285156 247.320312 76.785156 247.121094 76.382812 246.71875 C 75.980469 246.3125 75.78125 245.816406 75.78125 245.226562 L 75.78125 217.949219 C 75.78125 217.332031 75.980469 216.828125 76.382812 216.441406 C 76.785156 216.050781 77.285156 215.855469 77.875 215.855469 C 78.679688 215.855469 79.296875 216.230469 79.726562 216.984375 L 92.339844 242.246094 L 91.050781 242.246094 L 103.335938 216.984375 C 103.765625 216.230469 104.386719 215.855469 105.191406 215.855469 C 105.78125 215.855469 106.277344 216.050781 106.683594 216.441406 C 107.085938 216.828125 107.285156 217.332031 107.285156 217.949219 L 107.285156 245.226562 C 107.285156 245.816406 107.078125 246.3125 106.660156 246.71875 C 106.246094 247.121094 105.753906 247.320312 105.191406 247.320312 C 104.601562 247.320312 104.101562 247.121094 103.699219 246.71875 C 103.296875 246.3125 103.097656 245.816406 103.097656 245.226562 L 103.097656 223.753906 L 103.902344 223.550781 L 93.34375 245.066406 C 92.890625 245.765625 92.285156 246.113281 91.53125 246.113281 C 90.648438 246.113281 90.003906 245.695312 89.597656 244.863281 L 79.164062 223.953125 L 79.96875 223.753906 L 79.96875 245.226562 C 79.96875 245.816406 79.769531 246.3125 79.367188 246.71875 C 78.964844 247.121094 78.464844 247.320312 77.875 247.320312 "/>
<path style="fill:none;stroke-width:11.1765;stroke-linecap:butt;stroke-linejoin:miter;stroke:rgb(15.325928%,26.531982%,62.736511%);stroke-opacity:1;stroke-miterlimit:4;" d="M 778.75 2526.796875 C 772.851562 2526.796875 767.851562 2528.789062 763.828125 2532.8125 C 759.804688 2536.875 757.8125 2541.835938 757.8125 2547.734375 L 757.8125 2820.507812 C 757.8125 2826.679688 759.804688 2831.71875 763.828125 2835.585938 C 767.851562 2839.492188 772.851562 2841.445312 778.75 2841.445312 C 786.796875 2841.445312 792.96875 2837.695312 797.265625 2830.15625 L 923.398438 2577.539062 L 910.507812 2577.539062 L 1033.359375 2830.15625 C 1037.65625 2837.695312 1043.867188 2841.445312 1051.914062 2841.445312 C 1057.8125 2841.445312 1062.773438 2839.492188 1066.835938 2835.585938 C 1070.859375 2831.71875 1072.851562 2826.679688 1072.851562 2820.507812 L 1072.851562 2547.734375 C 1072.851562 2541.835938 1070.78125 2536.875 1066.601562 2532.8125 C 1062.460938 2528.789062 1057.539062 2526.796875 1051.914062 2526.796875 C 1046.015625 2526.796875 1041.015625 2528.789062 1036.992188 2532.8125 C 1032.96875 2536.875 1030.976562 2541.835938 1030.976562 2547.734375 L 1030.976562 2762.460938 L 1039.023438 2764.492188 L 933.4375 2549.335938 C 928.90625 2542.34375 922.851562 2538.867188 915.3125 2538.867188 C 906.484375 2538.867188 900.039062 2543.046875 895.976562 2551.367188 L 791.640625 2760.46875 L 799.6875 2762.460938 L 799.6875 2547.734375 C 799.6875 2541.835938 797.695312 2536.875 793.671875 2532.8125 C 789.648438 2528.789062 784.648438 2526.796875 778.75 2526.796875 Z M 778.75 2526.796875 " transform="matrix(0.1,0,0,-0.1,0,500)"/>
<path style=" stroke:none;fill-rule:nonzero;fill:rgb(15.325928%,26.531982%,62.736511%);fill-opacity:1;" d="M 129.421875 243.9375 C 131.164062 243.9375 132.769531 243.621094 134.234375 242.988281 C 135.699219 242.359375 136.96875 241.484375 138.042969 240.371094 C 139.117188 239.257812 139.941406 237.949219 140.519531 236.441406 C 141.097656 234.9375 141.386719 233.3125 141.386719 231.566406 C 141.386719 229.824219 141.097656 228.199219 140.519531 226.691406 C 139.941406 225.1875 139.117188 223.878906 138.042969 222.765625 C 136.96875 221.652344 135.699219 220.785156 134.234375 220.164062 C 132.769531 219.550781 131.164062 219.238281 129.421875 219.238281 C 127.675781 219.238281 126.070312 219.550781 124.605469 220.164062 C 123.140625 220.785156 121.878906 221.652344 120.820312 222.765625 C 119.757812 223.878906 118.929688 225.1875 118.339844 226.691406 C 117.75 228.199219 117.453125 229.824219 117.453125 231.566406 C 117.453125 233.3125 117.75 234.9375 118.339844 236.441406 C 118.929688 237.949219 119.757812 239.257812 120.820312 240.371094 C 121.878906 241.484375 123.140625 242.359375 124.605469 242.988281 C 126.070312 243.621094 127.675781 243.9375 129.421875 243.9375 Z M 129.421875 247.722656 C 127.058594 247.722656 124.894531 247.328125 122.933594 246.535156 C 120.972656 245.742188 119.289062 244.628906 117.878906 243.191406 C 116.46875 241.753906 115.371094 240.050781 114.59375 238.074219 C 113.8125 236.101562 113.425781 233.933594 113.425781 231.566406 C 113.425781 229.203125 113.8125 227.042969 114.59375 225.082031 C 115.371094 223.121094 116.46875 221.421875 117.878906 219.984375 C 119.289062 218.550781 120.972656 217.433594 122.933594 216.640625 C 124.894531 215.851562 127.058594 215.453125 129.421875 215.453125 C 131.785156 215.453125 133.9375 215.851562 135.886719 216.640625 C 137.835938 217.433594 139.519531 218.550781 140.941406 219.984375 C 142.367188 221.421875 143.46875 223.121094 144.246094 225.082031 C 145.023438 227.042969 145.414062 229.203125 145.414062 231.566406 C 145.414062 233.933594 145.023438 236.101562 144.246094 238.074219 C 143.46875 240.050781 142.367188 241.753906 140.941406 243.191406 C 139.519531 244.628906 137.835938 245.742188 135.886719 246.535156 C 133.9375 247.328125 131.785156 247.722656 129.421875 247.722656 "/>
<path style="fill:none;stroke-width:11.1765;stroke-linecap:butt;stroke-linejoin:miter;stroke:rgb(15.325928%,26.531982%,62.736511%);stroke-opacity:1;stroke-miterlimit:4;" d="M 1294.21875 2560.625 C 1311.640625 2560.625 1327.695312 2563.789062 1342.34375 2570.117188 C 1356.992188 2576.40625 1369.6875 2585.15625 1380.429688 2596.289062 C 1391.171875 2607.421875 1399.414062 2620.507812 1405.195312 2635.585938 C 1410.976562 2650.625 1413.867188 2666.875 1413.867188 2684.335938 C 1413.867188 2701.757812 1410.976562 2718.007812 1405.195312 2733.085938 C 1399.414062 2748.125 1391.171875 2761.210938 1380.429688 2772.34375 C 1369.6875 2783.476562 1356.992188 2792.148438 1342.34375 2798.359375 C 1327.695312 2804.492188 1311.640625 2807.617188 1294.21875 2807.617188 C 1276.757812 2807.617188 1260.703125 2804.492188 1246.054688 2798.359375 C 1231.40625 2792.148438 1218.789062 2783.476562 1208.203125 2772.34375 C 1197.578125 2761.210938 1189.296875 2748.125 1183.398438 2733.085938 C 1177.5 2718.007812 1174.53125 2701.757812 1174.53125 2684.335938 C 1174.53125 2666.875 1177.5 2650.625 1183.398438 2635.585938 C 1189.296875 2620.507812 1197.578125 2607.421875 1208.203125 2596.289062 C 1218.789062 2585.15625 1231.40625 2576.40625 1246.054688 2570.117188 C 1260.703125 2563.789062 1276.757812 2560.625 1294.21875 2560.625 Z M 1294.21875 2522.773438 C 1270.585938 2522.773438 1248.945312 2526.71875 1229.335938 2534.648438 C 1209.726562 2542.578125 1192.890625 2553.710938 1178.789062 2568.085938 C 1164.6875 2582.460938 1153.710938 2599.492188 1145.9375 2619.257812 C 1138.125 2638.984375 1134.257812 2660.664062 1134.257812 2684.335938 C 1134.257812 2707.96875 1138.125 2729.570312 1145.9375 2749.179688 C 1153.710938 2768.789062 1164.6875 2785.78125 1178.789062 2800.15625 C 1192.890625 2814.492188 1209.726562 2825.664062 1229.335938 2833.59375 C 1248.945312 2841.484375 1270.585938 2845.46875 1294.21875 2845.46875 C 1317.851562 2845.46875 1339.375 2841.484375 1358.867188 2833.59375 C 1378.359375 2825.664062 1395.195312 2814.492188 1409.414062 2800.15625 C 1423.671875 2785.78125 1434.6875 2768.789062 1442.460938 2749.179688 C 1450.234375 2729.570312 1454.140625 2707.96875 1454.140625 2684.335938 C 1454.140625 2660.664062 1450.234375 2638.984375 1442.460938 2619.257812 C 1434.6875 2599.492188 1423.671875 2582.460938 1409.414062 2568.085938 C 1395.195312 2553.710938 1378.359375 2542.578125 1358.867188 2534.648438 C 1339.375 2526.71875 1317.851562 2522.773438 1294.21875 2522.773438 Z M 1294.21875 2522.773438 " transform="matrix(0.1,0,0,-0.1,0,500)"/>
<path style=" stroke:none;fill-rule:nonzero;fill:rgb(15.325928%,26.531982%,62.736511%);fill-opacity:1;" d="M 155.664062 243.613281 L 160.859375 243.613281 C 163.117188 243.613281 165.109375 243.097656 166.84375 242.0625 C 168.574219 241.03125 169.9375 239.605469 170.933594 237.792969 C 171.925781 235.980469 172.425781 233.90625 172.425781 231.566406 C 172.425781 229.203125 171.925781 227.121094 170.933594 225.324219 C 169.9375 223.523438 168.574219 222.113281 166.84375 221.09375 C 165.109375 220.074219 163.117188 219.5625 160.859375 219.5625 L 155.664062 219.5625 Z M 153.570312 247.320312 C 152.976562 247.320312 152.480469 247.121094 152.078125 246.71875 C 151.675781 246.3125 151.472656 245.816406 151.472656 245.226562 L 151.472656 217.949219 C 151.472656 217.332031 151.675781 216.828125 152.078125 216.441406 C 152.480469 216.050781 152.976562 215.855469 153.570312 215.855469 L 160.859375 215.855469 C 163.171875 215.855469 165.273438 216.238281 167.164062 217.003906 C 169.058594 217.769531 170.703125 218.855469 172.101562 220.265625 C 173.496094 221.675781 174.570312 223.335938 175.324219 225.242188 C 176.074219 227.148438 176.453125 229.257812 176.453125 231.566406 C 176.453125 233.878906 176.074219 235.992188 175.324219 237.914062 C 174.570312 239.835938 173.496094 241.5 172.101562 242.910156 C 170.703125 244.320312 169.058594 245.40625 167.164062 246.171875 C 165.273438 246.9375 163.171875 247.320312 160.859375 247.320312 L 153.570312 247.320312 "/>
<path style="fill:none;stroke-width:11.1765;stroke-linecap:butt;stroke-linejoin:miter;stroke:rgb(15.325928%,26.531982%,62.736511%);stroke-opacity:1;stroke-miterlimit:4;" d="M 1556.640625 2563.867188 L 1608.59375 2563.867188 C 1631.171875 2563.867188 1651.09375 2569.023438 1668.4375 2579.375 C 1685.742188 2589.6875 1699.375 2603.945312 1709.335938 2622.070312 C 1719.257812 2640.195312 1724.257812 2660.9375 1724.257812 2684.335938 C 1724.257812 2707.96875 1719.257812 2728.789062 1709.335938 2746.757812 C 1699.375 2764.765625 1685.742188 2778.867188 1668.4375 2789.0625 C 1651.09375 2799.257812 1631.171875 2804.375 1608.59375 2804.375 L 1556.640625 2804.375 Z M 1535.703125 2526.796875 C 1529.765625 2526.796875 1524.804688 2528.789062 1520.78125 2532.8125 C 1516.757812 2536.875 1514.726562 2541.835938 1514.726562 2547.734375 L 1514.726562 2820.507812 C 1514.726562 2826.679688 1516.757812 2831.71875 1520.78125 2835.585938 C 1524.804688 2839.492188 1529.765625 2841.445312 1535.703125 2841.445312 L 1608.59375 2841.445312 C 1631.71875 2841.445312 1652.734375 2837.617188 1671.640625 2829.960938 C 1690.585938 2822.304688 1707.03125 2811.445312 1721.015625 2797.34375 C 1734.960938 2783.242188 1745.703125 2766.640625 1753.242188 2747.578125 C 1760.742188 2728.515625 1764.53125 2707.421875 1764.53125 2684.335938 C 1764.53125 2661.210938 1760.742188 2640.078125 1753.242188 2620.859375 C 1745.703125 2601.640625 1734.960938 2585 1721.015625 2570.898438 C 1707.03125 2556.796875 1690.585938 2545.9375 1671.640625 2538.28125 C 1652.734375 2530.625 1631.71875 2526.796875 1608.59375 2526.796875 Z M 1535.703125 2526.796875 " transform="matrix(0.1,0,0,-0.1,0,500)"/>
<path style=" stroke:none;fill-rule:nonzero;fill:rgb(15.325928%,26.531982%,62.736511%);fill-opacity:1;" d="M 184.667969 247.320312 C 184.074219 247.320312 183.578125 247.121094 183.175781 246.71875 C 182.773438 246.3125 182.570312 245.816406 182.570312 245.226562 L 182.570312 217.949219 C 182.570312 217.332031 182.773438 216.828125 183.175781 216.441406 C 183.578125 216.050781 184.074219 215.855469 184.667969 215.855469 L 202.878906 215.855469 C 203.496094 215.855469 203.992188 216.035156 204.367188 216.398438 C 204.746094 216.761719 204.933594 217.238281 204.933594 217.828125 C 204.933594 218.394531 204.746094 218.851562 204.367188 219.199219 C 203.992188 219.550781 203.496094 219.722656 202.878906 219.722656 L 186.761719 219.722656 L 186.761719 229.515625 L 198.324219 229.515625 C 198.941406 229.515625 199.4375 229.695312 199.816406 230.058594 C 200.191406 230.421875 200.378906 230.882812 200.378906 231.445312 C 200.378906 232.011719 200.191406 232.476562 199.816406 232.835938 C 199.4375 233.199219 198.941406 233.382812 198.324219 233.382812 L 186.761719 233.382812 L 186.761719 243.453125 L 202.878906 243.453125 C 203.496094 243.453125 203.992188 243.628906 204.367188 243.976562 C 204.746094 244.328125 204.933594 244.78125 204.933594 245.347656 C 204.933594 245.9375 204.746094 246.414062 204.367188 246.777344 C 203.992188 247.140625 203.496094 247.320312 202.878906 247.320312 L 184.667969 247.320312 "/>
<path style="fill:none;stroke-width:11.1765;stroke-linecap:butt;stroke-linejoin:miter;stroke:rgb(15.325928%,26.531982%,62.736511%);stroke-opacity:1;stroke-miterlimit:4;" d="M 1846.679688 2526.796875 C 1840.742188 2526.796875 1835.78125 2528.789062 1831.757812 2532.8125 C 1827.734375 2536.875 1825.703125 2541.835938 1825.703125 2547.734375 L 1825.703125 2820.507812 C 1825.703125 2826.679688 1827.734375 2831.71875 1831.757812 2835.585938 C 1835.78125 2839.492188 1840.742188 2841.445312 1846.679688 2841.445312 L 2028.789062 2841.445312 C 2034.960938 2841.445312 2039.921875 2839.648438 2043.671875 2836.015625 C 2047.460938 2832.382812 2049.335938 2827.617188 2049.335938 2821.71875 C 2049.335938 2816.054688 2047.460938 2811.484375 2043.671875 2808.007812 C 2039.921875 2804.492188 2034.960938 2802.773438 2028.789062 2802.773438 L 1867.617188 2802.773438 L 1867.617188 2704.84375 L 1983.242188 2704.84375 C 1989.414062 2704.84375 1994.375 2703.046875 1998.164062 2699.414062 C 2001.914062 2695.78125 2003.789062 2691.171875 2003.789062 2685.546875 C 2003.789062 2679.882812 2001.914062 2675.234375 1998.164062 2671.640625 C 1994.375 2668.007812 1989.414062 2666.171875 1983.242188 2666.171875 L 1867.617188 2666.171875 L 1867.617188 2565.46875 L 2028.789062 2565.46875 C 2034.960938 2565.46875 2039.921875 2563.710938 2043.671875 2560.234375 C 2047.460938 2556.71875 2049.335938 2552.1875 2049.335938 2546.523438 C 2049.335938 2540.625 2047.460938 2535.859375 2043.671875 2532.226562 C 2039.921875 2528.59375 2034.960938 2526.796875 2028.789062 2526.796875 Z M 1846.679688 2526.796875 " transform="matrix(0.1,0,0,-0.1,0,500)"/>
<path style=" stroke:none;fill-rule:nonzero;fill:rgb(15.325928%,26.531982%,62.736511%);fill-opacity:1;" d="M 212.007812 247.320312 C 211.417969 247.320312 210.925781 247.121094 210.535156 246.71875 C 210.148438 246.3125 209.953125 245.816406 209.953125 245.226562 L 209.953125 217.949219 C 209.953125 217.359375 210.152344 216.863281 210.558594 216.460938 C 210.960938 216.058594 211.441406 215.855469 212.007812 215.855469 C 212.597656 215.855469 213.09375 216.058594 213.496094 216.460938 C 213.902344 216.863281 214.101562 217.359375 214.101562 217.949219 L 214.101562 243.132812 L 228.6875 243.132812 C 229.277344 243.132812 229.773438 243.332031 230.179688 243.734375 C 230.582031 244.140625 230.78125 244.636719 230.78125 245.226562 C 230.78125 245.816406 230.582031 246.3125 230.179688 246.71875 C 229.773438 247.121094 229.277344 247.320312 228.6875 247.320312 L 212.007812 247.320312 "/>
<path style="fill:none;stroke-width:11.1765;stroke-linecap:butt;stroke-linejoin:miter;stroke:rgb(15.325928%,26.531982%,62.736511%);stroke-opacity:1;stroke-miterlimit:4;" d="M 2120.078125 2526.796875 C 2114.179688 2526.796875 2109.257812 2528.789062 2105.351562 2532.8125 C 2101.484375 2536.875 2099.53125 2541.835938 2099.53125 2547.734375 L 2099.53125 2820.507812 C 2099.53125 2826.40625 2101.523438 2831.367188 2105.585938 2835.390625 C 2109.609375 2839.414062 2114.414062 2841.445312 2120.078125 2841.445312 C 2125.976562 2841.445312 2130.9375 2839.414062 2134.960938 2835.390625 C 2139.023438 2831.367188 2141.015625 2826.40625 2141.015625 2820.507812 L 2141.015625 2568.671875 L 2286.875 2568.671875 C 2292.773438 2568.671875 2297.734375 2566.679688 2301.796875 2562.65625 C 2305.820312 2558.59375 2307.8125 2553.632812 2307.8125 2547.734375 C 2307.8125 2541.835938 2305.820312 2536.875 2301.796875 2532.8125 C 2297.734375 2528.789062 2292.773438 2526.796875 2286.875 2526.796875 Z M 2120.078125 2526.796875 " transform="matrix(0.1,0,0,-0.1,0,500)"/>
<path style=" stroke:none;fill-rule:nonzero;fill:rgb(15.325928%,26.531982%,62.736511%);fill-opacity:1;" d="M 261.722656 247.722656 C 259.546875 247.722656 257.515625 247.316406 255.621094 246.496094 C 253.726562 245.675781 252.074219 244.535156 250.664062 243.070312 C 249.253906 241.605469 248.152344 239.894531 247.359375 237.933594 C 246.566406 235.972656 246.171875 233.851562 246.171875 231.566406 C 246.171875 229.3125 246.566406 227.210938 247.359375 225.261719 C 248.152344 223.316406 249.253906 221.609375 250.664062 220.144531 C 252.074219 218.683594 253.71875 217.535156 255.601562 216.703125 C 257.480469 215.871094 259.519531 215.453125 261.722656 215.453125 C 263.792969 215.453125 265.570312 215.722656 267.0625 216.257812 C 268.554688 216.796875 270.050781 217.683594 271.554688 218.917969 C 271.769531 219.078125 271.9375 219.246094 272.058594 219.421875 C 272.179688 219.597656 272.257812 219.769531 272.300781 219.945312 C 272.339844 220.121094 272.359375 220.328125 272.359375 220.570312 C 272.359375 221.078125 272.179688 221.503906 271.816406 221.839844 C 271.453125 222.175781 271.015625 222.363281 270.507812 222.402344 C 269.996094 222.441406 269.5 222.273438 269.015625 221.898438 C 268.023438 221.039062 266.996094 220.382812 265.933594 219.925781 C 264.871094 219.46875 263.46875 219.238281 261.722656 219.238281 C 260.140625 219.238281 258.648438 219.5625 257.25 220.207031 C 255.855469 220.851562 254.625 221.738281 253.566406 222.867188 C 252.503906 223.992188 251.679688 225.304688 251.085938 226.792969 C 250.496094 228.285156 250.199219 229.875 250.199219 231.566406 C 250.199219 233.289062 250.496094 234.890625 251.085938 236.382812 C 251.679688 237.871094 252.503906 239.183594 253.566406 240.3125 C 254.625 241.4375 255.855469 242.320312 257.25 242.949219 C 258.648438 243.582031 260.140625 243.898438 261.722656 243.898438 C 263.09375 243.898438 264.390625 243.660156 265.613281 243.191406 C 266.832031 242.722656 268.007812 242.070312 269.136719 241.238281 C 269.621094 240.890625 270.097656 240.734375 270.566406 240.773438 C 271.035156 240.8125 271.433594 241.003906 271.757812 241.339844 C 272.078125 241.675781 272.238281 242.136719 272.238281 242.726562 C 272.238281 242.996094 272.183594 243.257812 272.078125 243.515625 C 271.96875 243.769531 271.808594 244.003906 271.59375 244.21875 C 270.144531 245.375 268.59375 246.246094 266.941406 246.839844 C 265.289062 247.429688 263.550781 247.722656 261.722656 247.722656 "/>
<path style="fill:none;stroke-width:11.1765;stroke-linecap:butt;stroke-linejoin:miter;stroke:rgb(15.325928%,26.531982%,62.736511%);stroke-opacity:1;stroke-miterlimit:4;" d="M 2617.226562 2522.773438 C 2595.46875 2522.773438 2575.15625 2526.835938 2556.210938 2535.039062 C 2537.265625 2543.242188 2520.742188 2554.648438 2506.640625 2569.296875 C 2492.539062 2583.945312 2481.523438 2601.054688 2473.59375 2620.664062 C 2465.664062 2640.273438 2461.71875 2661.484375 2461.71875 2684.335938 C 2461.71875 2706.875 2465.664062 2727.890625 2473.59375 2747.382812 C 2481.523438 2766.835938 2492.539062 2783.90625 2506.640625 2798.554688 C 2520.742188 2813.164062 2537.1875 2824.648438 2556.015625 2832.96875 C 2574.804688 2841.289062 2595.195312 2845.46875 2617.226562 2845.46875 C 2637.929688 2845.46875 2655.703125 2842.773438 2670.625 2837.421875 C 2685.546875 2832.03125 2700.507812 2823.164062 2715.546875 2810.820312 C 2717.695312 2809.21875 2719.375 2807.539062 2720.585938 2805.78125 C 2721.796875 2804.023438 2722.578125 2802.304688 2723.007812 2800.546875 C 2723.398438 2798.789062 2723.59375 2796.71875 2723.59375 2794.296875 C 2723.59375 2789.21875 2721.796875 2784.960938 2718.164062 2781.601562 C 2714.53125 2778.242188 2710.15625 2776.367188 2705.078125 2775.976562 C 2699.960938 2775.585938 2695 2777.265625 2690.15625 2781.015625 C 2680.234375 2789.609375 2669.960938 2796.171875 2659.335938 2800.742188 C 2648.710938 2805.3125 2634.6875 2807.617188 2617.226562 2807.617188 C 2601.40625 2807.617188 2586.484375 2804.375 2572.5 2797.929688 C 2558.554688 2791.484375 2546.25 2782.617188 2535.664062 2771.328125 C 2525.039062 2760.078125 2516.796875 2746.953125 2510.859375 2732.070312 C 2504.960938 2717.148438 2501.992188 2701.25 2501.992188 2684.335938 C 2501.992188 2667.109375 2504.960938 2651.09375 2510.859375 2636.171875 C 2516.796875 2621.289062 2525.039062 2608.164062 2535.664062 2596.875 C 2546.25 2585.625 2558.554688 2576.796875 2572.5 2570.507812 C 2586.484375 2564.179688 2601.40625 2561.015625 2617.226562 2561.015625 C 2630.9375 2561.015625 2643.90625 2563.398438 2656.132812 2568.085938 C 2668.320312 2572.773438 2680.078125 2579.296875 2691.367188 2587.617188 C 2696.210938 2591.09375 2700.976562 2592.65625 2705.664062 2592.265625 C 2710.351562 2591.875 2714.335938 2589.960938 2717.578125 2586.601562 C 2720.78125 2583.242188 2722.382812 2578.632812 2722.382812 2572.734375 C 2722.382812 2570.039062 2721.835938 2567.421875 2720.78125 2564.84375 C 2719.6875 2562.304688 2718.085938 2559.960938 2715.9375 2557.8125 C 2701.445312 2546.25 2685.9375 2537.539062 2669.414062 2531.601562 C 2652.890625 2525.703125 2635.507812 2522.773438 2617.226562 2522.773438 Z M 2617.226562 2522.773438 " transform="matrix(0.1,0,0,-0.1,0,500)"/>
<path style=" stroke:none;fill-rule:nonzero;fill:rgb(15.325928%,26.531982%,62.736511%);fill-opacity:1;" d="M 291.527344 243.9375 C 293.273438 243.9375 294.878906 243.621094 296.34375 242.988281 C 297.808594 242.359375 299.078125 241.484375 300.152344 240.371094 C 301.226562 239.257812 302.050781 237.949219 302.628906 236.441406 C 303.207031 234.9375 303.496094 233.3125 303.496094 231.566406 C 303.496094 229.824219 303.207031 228.199219 302.628906 226.691406 C 302.050781 225.1875 301.226562 223.878906 300.152344 222.765625 C 299.078125 221.652344 297.808594 220.785156 296.34375 220.164062 C 294.878906 219.550781 293.273438 219.238281 291.527344 219.238281 C 289.78125 219.238281 288.179688 219.550781 286.714844 220.164062 C 285.25 220.785156 283.988281 221.652344 282.929688 222.765625 C 281.867188 223.878906 281.039062 225.1875 280.449219 226.691406 C 279.859375 228.199219 279.5625 229.824219 279.5625 231.566406 C 279.5625 233.3125 279.859375 234.9375 280.449219 236.441406 C 281.039062 237.949219 281.867188 239.257812 282.929688 240.371094 C 283.988281 241.484375 285.25 242.359375 286.714844 242.988281 C 288.179688 243.621094 289.78125 243.9375 291.527344 243.9375 Z M 291.527344 247.722656 C 289.164062 247.722656 287.003906 247.328125 285.042969 246.535156 C 283.082031 245.742188 281.394531 244.628906 279.984375 243.191406 C 278.574219 241.753906 277.480469 240.050781 276.703125 238.074219 C 275.921875 236.101562 275.535156 233.933594 275.535156 231.566406 C 275.535156 229.203125 275.921875 227.042969 276.703125 225.082031 C 277.480469 223.121094 278.574219 221.421875 279.984375 219.984375 C 281.394531 218.550781 283.082031 217.433594 285.042969 216.640625 C 287.003906 215.851562 289.164062 215.453125 291.527344 215.453125 C 293.894531 215.453125 296.046875 215.851562 297.996094 216.640625 C 299.941406 217.433594 301.628906 218.550781 303.050781 219.984375 C 304.476562 221.421875 305.574219 223.121094 306.355469 225.082031 C 307.132812 227.042969 307.523438 229.203125 307.523438 231.566406 C 307.523438 233.933594 307.132812 236.101562 306.355469 238.074219 C 305.574219 240.050781 304.476562 241.753906 303.050781 243.191406 C 301.628906 244.628906 299.941406 245.742188 297.996094 246.535156 C 296.046875 247.328125 293.894531 247.722656 291.527344 247.722656 "/>
<path style="fill:none;stroke-width:11.1765;stroke-linecap:butt;stroke-linejoin:miter;stroke:rgb(15.325928%,26.531982%,62.736511%);stroke-opacity:1;stroke-miterlimit:4;" d="M 2915.273438 2560.625 C 2932.734375 2560.625 2948.789062 2563.789062 2963.4375 2570.117188 C 2978.085938 2576.40625 2990.78125 2585.15625 3001.523438 2596.289062 C 3012.265625 2607.421875 3020.507812 2620.507812 3026.289062 2635.585938 C 3032.070312 2650.625 3034.960938 2666.875 3034.960938 2684.335938 C 3034.960938 2701.757812 3032.070312 2718.007812 3026.289062 2733.085938 C 3020.507812 2748.125 3012.265625 2761.210938 3001.523438 2772.34375 C 2990.78125 2783.476562 2978.085938 2792.148438 2963.4375 2798.359375 C 2948.789062 2804.492188 2932.734375 2807.617188 2915.273438 2807.617188 C 2897.8125 2807.617188 2881.796875 2804.492188 2867.148438 2798.359375 C 2852.5 2792.148438 2839.882812 2783.476562 2829.296875 2772.34375 C 2818.671875 2761.210938 2810.390625 2748.125 2804.492188 2733.085938 C 2798.59375 2718.007812 2795.625 2701.757812 2795.625 2684.335938 C 2795.625 2666.875 2798.59375 2650.625 2804.492188 2635.585938 C 2810.390625 2620.507812 2818.671875 2607.421875 2829.296875 2596.289062 C 2839.882812 2585.15625 2852.5 2576.40625 2867.148438 2570.117188 C 2881.796875 2563.789062 2897.8125 2560.625 2915.273438 2560.625 Z M 2915.273438 2522.773438 C 2891.640625 2522.773438 2870.039062 2526.71875 2850.429688 2534.648438 C 2830.820312 2542.578125 2813.945312 2553.710938 2799.84375 2568.085938 C 2785.742188 2582.460938 2774.804688 2599.492188 2767.03125 2619.257812 C 2759.21875 2638.984375 2755.351562 2660.664062 2755.351562 2684.335938 C 2755.351562 2707.96875 2759.21875 2729.570312 2767.03125 2749.179688 C 2774.804688 2768.789062 2785.742188 2785.78125 2799.84375 2800.15625 C 2813.945312 2814.492188 2830.820312 2825.664062 2850.429688 2833.59375 C 2870.039062 2841.484375 2891.640625 2845.46875 2915.273438 2845.46875 C 2938.945312 2845.46875 2960.46875 2841.484375 2979.960938 2833.59375 C 2999.414062 2825.664062 3016.289062 2814.492188 3030.507812 2800.15625 C 3044.765625 2785.78125 3055.742188 2768.789062 3063.554688 2749.179688 C 3071.328125 2729.570312 3075.234375 2707.96875 3075.234375 2684.335938 C 3075.234375 2660.664062 3071.328125 2638.984375 3063.554688 2619.257812 C 3055.742188 2599.492188 3044.765625 2582.460938 3030.507812 2568.085938 C 3016.289062 2553.710938 2999.414062 2542.578125 2979.960938 2534.648438 C 2960.46875 2526.71875 2938.945312 2522.773438 2915.273438 2522.773438 Z M 2915.273438 2522.773438 " transform="matrix(0.1,0,0,-0.1,0,500)"/>
<path style=" stroke:none;fill-rule:nonzero;fill:rgb(15.325928%,26.531982%,62.736511%);fill-opacity:1;" d="M 326.578125 247.964844 C 324 247.964844 321.71875 247.488281 319.730469 246.535156 C 317.742188 245.582031 316.191406 244.257812 315.078125 242.566406 C 313.960938 240.875 313.40625 238.941406 313.40625 236.765625 L 313.40625 217.949219 C 313.40625 217.332031 313.605469 216.828125 314.011719 216.441406 C 314.414062 216.050781 314.910156 215.855469 315.5 215.855469 C 316.117188 215.855469 316.621094 216.050781 317.011719 216.441406 C 317.398438 216.828125 317.59375 217.332031 317.59375 217.949219 L 317.59375 236.765625 C 317.59375 238.214844 317.976562 239.5 318.742188 240.613281 C 319.507812 241.726562 320.570312 242.601562 321.925781 243.230469 C 323.28125 243.863281 324.832031 244.179688 326.578125 244.179688 C 328.273438 244.179688 329.769531 243.863281 331.070312 243.230469 C 332.375 242.601562 333.394531 241.726562 334.132812 240.613281 C 334.871094 239.5 335.242188 238.214844 335.242188 236.765625 L 335.242188 217.949219 C 335.242188 217.332031 335.441406 216.828125 335.847656 216.441406 C 336.25 216.050781 336.746094 215.855469 337.335938 215.855469 C 337.953125 215.855469 338.449219 216.050781 338.828125 216.441406 C 339.203125 216.828125 339.390625 217.332031 339.390625 217.949219 L 339.390625 236.765625 C 339.390625 238.941406 338.847656 240.875 337.761719 242.566406 C 336.671875 244.257812 335.160156 245.582031 333.226562 246.535156 C 331.292969 247.488281 329.078125 247.964844 326.578125 247.964844 "/>
<path style="fill:none;stroke-width:11.1765;stroke-linecap:butt;stroke-linejoin:miter;stroke:rgb(15.325928%,26.531982%,62.736511%);stroke-opacity:1;stroke-miterlimit:4;" d="M 3265.78125 2520.351562 C 3240 2520.351562 3217.1875 2525.117188 3197.304688 2534.648438 C 3177.421875 2544.179688 3161.914062 2557.421875 3150.78125 2574.335938 C 3139.609375 2591.25 3134.0625 2610.585938 3134.0625 2632.34375 L 3134.0625 2820.507812 C 3134.0625 2826.679688 3136.054688 2831.71875 3140.117188 2835.585938 C 3144.140625 2839.492188 3149.101562 2841.445312 3155 2841.445312 C 3161.171875 2841.445312 3166.210938 2839.492188 3170.117188 2835.585938 C 3173.984375 2831.71875 3175.9375 2826.679688 3175.9375 2820.507812 L 3175.9375 2632.34375 C 3175.9375 2617.851562 3179.765625 2605 3187.421875 2593.867188 C 3195.078125 2582.734375 3205.703125 2573.984375 3219.257812 2567.695312 C 3232.8125 2561.367188 3248.320312 2558.203125 3265.78125 2558.203125 C 3282.734375 2558.203125 3297.695312 2561.367188 3310.703125 2567.695312 C 3323.75 2573.984375 3333.945312 2582.734375 3341.328125 2593.867188 C 3348.710938 2605 3352.421875 2617.851562 3352.421875 2632.34375 L 3352.421875 2820.507812 C 3352.421875 2826.679688 3354.414062 2831.71875 3358.476562 2835.585938 C 3362.5 2839.492188 3367.460938 2841.445312 3373.359375 2841.445312 C 3379.53125 2841.445312 3384.492188 2839.492188 3388.28125 2835.585938 C 3392.03125 2831.71875 3393.90625 2826.679688 3393.90625 2820.507812 L 3393.90625 2632.34375 C 3393.90625 2610.585938 3388.476562 2591.25 3377.617188 2574.335938 C 3366.71875 2557.421875 3351.601562 2544.179688 3332.265625 2534.648438 C 3312.929688 2525.117188 3290.78125 2520.351562 3265.78125 2520.351562 Z M 3265.78125 2520.351562 " transform="matrix(0.1,0,0,-0.1,0,500)"/>
<path style=" stroke:none;fill-rule:nonzero;fill:rgb(15.325928%,26.531982%,62.736511%);fill-opacity:1;" d="M 348.957031 247.320312 C 348.363281 247.320312 347.875 247.121094 347.484375 246.71875 C 347.097656 246.3125 346.902344 245.816406 346.902344 245.226562 L 346.902344 217.949219 C 346.902344 217.332031 347.097656 216.828125 347.484375 216.441406 C 347.875 216.050781 348.363281 215.855469 348.957031 215.855469 C 349.601562 215.855469 350.136719 216.109375 350.566406 216.621094 L 368.132812 239.988281 L 368.132812 217.949219 C 368.132812 217.332031 368.335938 216.828125 368.738281 216.441406 C 369.140625 216.050781 369.636719 215.855469 370.230469 215.855469 C 370.847656 215.855469 371.34375 216.050781 371.71875 216.441406 C 372.09375 216.828125 372.28125 217.332031 372.28125 217.949219 L 372.28125 245.226562 C 372.28125 245.816406 372.09375 246.3125 371.71875 246.71875 C 371.34375 247.121094 370.847656 247.320312 370.230469 247.320312 C 369.960938 247.320312 369.671875 247.261719 369.363281 247.140625 C 369.054688 247.019531 368.804688 246.839844 368.617188 246.597656 L 351.050781 223.226562 L 351.050781 245.226562 C 351.050781 245.816406 350.855469 246.3125 350.46875 246.71875 C 350.078125 247.121094 349.574219 247.320312 348.957031 247.320312 "/>
<path style="fill:none;stroke-width:11.1765;stroke-linecap:butt;stroke-linejoin:miter;stroke:rgb(15.325928%,26.531982%,62.736511%);stroke-opacity:1;stroke-miterlimit:4;" d="M 3489.570312 2526.796875 C 3483.632812 2526.796875 3478.75 2528.789062 3474.84375 2532.8125 C 3470.976562 2536.875 3469.023438 2541.835938 3469.023438 2547.734375 L 3469.023438 2820.507812 C 3469.023438 2826.679688 3470.976562 2831.71875 3474.84375 2835.585938 C 3478.75 2839.492188 3483.632812 2841.445312 3489.570312 2841.445312 C 3496.015625 2841.445312 3501.367188 2838.90625 3505.664062 2833.789062 L 3681.328125 2600.117188 L 3681.328125 2820.507812 C 3681.328125 2826.679688 3683.359375 2831.71875 3687.382812 2835.585938 C 3691.40625 2839.492188 3696.367188 2841.445312 3702.304688 2841.445312 C 3708.476562 2841.445312 3713.4375 2839.492188 3717.1875 2835.585938 C 3720.9375 2831.71875 3722.8125 2826.679688 3722.8125 2820.507812 L 3722.8125 2547.734375 C 3722.8125 2541.835938 3720.9375 2536.875 3717.1875 2532.8125 C 3713.4375 2528.789062 3708.476562 2526.796875 3702.304688 2526.796875 C 3699.609375 2526.796875 3696.71875 2527.382812 3693.632812 2528.59375 C 3690.546875 2529.804688 3688.046875 2531.601562 3686.171875 2534.023438 L 3510.507812 2767.734375 L 3510.507812 2547.734375 C 3510.507812 2541.835938 3508.554688 2536.875 3504.6875 2532.8125 C 3500.78125 2528.789062 3495.742188 2526.796875 3489.570312 2526.796875 Z M 3489.570312 2526.796875 " transform="matrix(0.1,0,0,-0.1,0,500)"/>
<path style=" stroke:none;fill-rule:nonzero;fill:rgb(15.325928%,26.531982%,62.736511%);fill-opacity:1;" d="M 389.4375 247.320312 C 388.847656 247.320312 388.351562 247.121094 387.945312 246.71875 C 387.542969 246.3125 387.34375 245.816406 387.34375 245.226562 L 387.34375 215.855469 L 391.53125 215.855469 L 391.53125 245.226562 C 391.53125 245.816406 391.332031 246.3125 390.929688 246.71875 C 390.523438 247.121094 390.027344 247.320312 389.4375 247.320312 Z M 378.640625 219.722656 C 378.074219 219.722656 377.613281 219.542969 377.25 219.179688 C 376.886719 218.816406 376.707031 218.351562 376.707031 217.789062 C 376.707031 217.226562 376.886719 216.761719 377.25 216.398438 C 377.613281 216.035156 378.074219 215.855469 378.640625 215.855469 L 400.195312 215.855469 C 400.757812 215.855469 401.222656 216.035156 401.585938 216.398438 C 401.945312 216.761719 402.128906 217.226562 402.128906 217.789062 C 402.128906 218.351562 401.945312 218.816406 401.585938 219.179688 C 401.222656 219.542969 400.757812 219.722656 400.195312 219.722656 L 378.640625 219.722656 "/>
<path style="fill:none;stroke-width:11.1765;stroke-linecap:butt;stroke-linejoin:miter;stroke:rgb(15.325928%,26.531982%,62.736511%);stroke-opacity:1;stroke-miterlimit:4;" d="M 3894.375 2526.796875 C 3888.476562 2526.796875 3883.515625 2528.789062 3879.453125 2532.8125 C 3875.429688 2536.875 3873.4375 2541.835938 3873.4375 2547.734375 L 3873.4375 2841.445312 L 3915.3125 2841.445312 L 3915.3125 2547.734375 C 3915.3125 2541.835938 3913.320312 2536.875 3909.296875 2532.8125 C 3905.234375 2528.789062 3900.273438 2526.796875 3894.375 2526.796875 Z M 3786.40625 2802.773438 C 3780.742188 2802.773438 3776.132812 2804.570312 3772.5 2808.203125 C 3768.867188 2811.835938 3767.070312 2816.484375 3767.070312 2822.109375 C 3767.070312 2827.734375 3768.867188 2832.382812 3772.5 2836.015625 C 3776.132812 2839.648438 3780.742188 2841.445312 3786.40625 2841.445312 L 4001.953125 2841.445312 C 4007.578125 2841.445312 4012.226562 2839.648438 4015.859375 2836.015625 C 4019.453125 2832.382812 4021.289062 2827.734375 4021.289062 2822.109375 C 4021.289062 2816.484375 4019.453125 2811.835938 4015.859375 2808.203125 C 4012.226562 2804.570312 4007.578125 2802.773438 4001.953125 2802.773438 Z M 3786.40625 2802.773438 " transform="matrix(0.1,0,0,-0.1,0,500)"/>
<path style=" stroke:none;fill-rule:nonzero;fill:rgb(15.325928%,26.531982%,62.736511%);fill-opacity:1;" d="M 420.621094 247.320312 C 420.027344 247.320312 419.539062 247.121094 419.148438 246.71875 C 418.761719 246.3125 418.566406 245.816406 418.566406 245.226562 L 418.566406 217.949219 C 418.566406 217.332031 418.761719 216.828125 419.148438 216.441406 C 419.539062 216.050781 420.027344 215.855469 420.621094 215.855469 C 421.265625 215.855469 421.804688 216.109375 422.230469 216.621094 L 439.796875 239.988281 L 439.796875 217.949219 C 439.796875 217.332031 440 216.828125 440.402344 216.441406 C 440.804688 216.050781 441.300781 215.855469 441.894531 215.855469 C 442.511719 215.855469 443.007812 216.050781 443.382812 216.441406 C 443.761719 216.828125 443.949219 217.332031 443.949219 217.949219 L 443.949219 245.226562 C 443.949219 245.816406 443.761719 246.3125 443.382812 246.71875 C 443.007812 247.121094 442.511719 247.320312 441.894531 247.320312 C 441.625 247.320312 441.335938 247.261719 441.027344 247.140625 C 440.71875 247.019531 440.46875 246.839844 440.28125 246.597656 L 422.714844 223.226562 L 422.714844 245.226562 C 422.714844 245.816406 422.519531 246.3125 422.132812 246.71875 C 421.742188 247.121094 421.238281 247.320312 420.621094 247.320312 "/>
<path style="fill:none;stroke-width:11.1765;stroke-linecap:butt;stroke-linejoin:miter;stroke:rgb(15.325928%,26.531982%,62.736511%);stroke-opacity:1;stroke-miterlimit:4;" d="M 4206.210938 2526.796875 C 4200.273438 2526.796875 4195.390625 2528.789062 4191.484375 2532.8125 C 4187.617188 2536.875 4185.664062 2541.835938 4185.664062 2547.734375 L 4185.664062 2820.507812 C 4185.664062 2826.679688 4187.617188 2831.71875 4191.484375 2835.585938 C 4195.390625 2839.492188 4200.273438 2841.445312 4206.210938 2841.445312 C 4212.65625 2841.445312 4218.046875 2838.90625 4222.304688 2833.789062 L 4397.96875 2600.117188 L 4397.96875 2820.507812 C 4397.96875 2826.679688 4400 2831.71875 4404.023438 2835.585938 C 4408.046875 2839.492188 4413.007812 2841.445312 4418.945312 2841.445312 C 4425.117188 2841.445312 4430.078125 2839.492188 4433.828125 2835.585938 C 4437.617188 2831.71875 4439.492188 2826.679688 4439.492188 2820.507812 L 4439.492188 2547.734375 C 4439.492188 2541.835938 4437.617188 2536.875 4433.828125 2532.8125 C 4430.078125 2528.789062 4425.117188 2526.796875 4418.945312 2526.796875 C 4416.25 2526.796875 4413.359375 2527.382812 4410.273438 2528.59375 C 4407.1875 2529.804688 4404.6875 2531.601562 4402.8125 2534.023438 L 4227.148438 2767.734375 L 4227.148438 2547.734375 C 4227.148438 2541.835938 4225.195312 2536.875 4221.328125 2532.8125 C 4217.421875 2528.789062 4212.382812 2526.796875 4206.210938 2526.796875 Z M 4206.210938 2526.796875 " transform="matrix(0.1,0,0,-0.1,0,500)"/>
<path style=" stroke:none;fill-rule:nonzero;fill:rgb(15.325928%,26.531982%,62.736511%);fill-opacity:1;" d="M 476.152344 242.726562 L 472.125 241.921875 L 472.125 234.710938 L 466.566406 234.710938 C 465.976562 234.710938 465.476562 234.535156 465.074219 234.1875 C 464.671875 233.839844 464.472656 233.394531 464.472656 232.855469 C 464.472656 232.320312 464.671875 231.878906 465.074219 231.527344 C 465.476562 231.179688 465.976562 231.003906 466.566406 231.003906 L 474.101562 231.003906 C 474.71875 231.003906 475.214844 231.199219 475.589844 231.589844 C 475.964844 231.976562 476.152344 232.480469 476.152344 233.097656 Z M 465.640625 247.722656 C 463.464844 247.722656 461.429688 247.316406 459.535156 246.496094 C 457.640625 245.675781 455.988281 244.535156 454.578125 243.070312 C 453.167969 241.605469 452.066406 239.894531 451.273438 237.933594 C 450.484375 235.972656 450.085938 233.851562 450.085938 231.566406 C 450.085938 229.3125 450.484375 227.210938 451.273438 225.261719 C 452.066406 223.316406 453.167969 221.609375 454.578125 220.144531 C 455.988281 218.683594 457.636719 217.535156 459.515625 216.703125 C 461.394531 215.871094 463.4375 215.453125 465.640625 215.453125 C 467.707031 215.453125 469.484375 215.722656 470.976562 216.257812 C 472.46875 216.796875 473.964844 217.683594 475.46875 218.917969 C 475.683594 219.078125 475.851562 219.246094 475.972656 219.421875 C 476.09375 219.597656 476.175781 219.769531 476.214844 219.945312 C 476.253906 220.121094 476.273438 220.328125 476.273438 220.570312 C 476.273438 221.078125 476.09375 221.511719 475.730469 221.859375 C 475.367188 222.207031 474.925781 222.394531 474.402344 222.421875 C 473.878906 222.449219 473.386719 222.273438 472.929688 221.898438 C 471.9375 221.039062 470.910156 220.382812 469.847656 219.925781 C 468.785156 219.46875 467.386719 219.238281 465.640625 219.238281 C 464.054688 219.238281 462.5625 219.5625 461.167969 220.207031 C 459.769531 220.851562 458.539062 221.738281 457.480469 222.867188 C 456.417969 223.992188 455.59375 225.304688 455.003906 226.792969 C 454.410156 228.285156 454.117188 229.875 454.117188 231.566406 C 454.117188 233.289062 454.410156 234.890625 455.003906 236.382812 C 455.59375 237.871094 456.417969 239.183594 457.480469 240.3125 C 458.539062 241.4375 459.769531 242.320312 461.167969 242.949219 C 462.5625 243.582031 464.054688 243.898438 465.640625 243.898438 C 467.007812 243.898438 468.304688 243.660156 469.527344 243.191406 C 470.746094 242.722656 471.925781 242.070312 473.050781 241.238281 C 473.535156 240.890625 474.011719 240.734375 474.480469 240.773438 C 474.953125 240.8125 475.347656 241.003906 475.671875 241.339844 C 475.992188 241.675781 476.152344 242.136719 476.152344 242.726562 C 476.152344 242.996094 476.105469 243.257812 476.011719 243.515625 C 475.917969 243.769531 475.75 244.003906 475.511719 244.21875 C 474.085938 245.402344 472.539062 246.28125 470.875 246.859375 C 469.210938 247.433594 467.464844 247.722656 465.640625 247.722656 "/>
<path style="fill:none;stroke-width:11.1765;stroke-linecap:butt;stroke-linejoin:miter;stroke:rgb(15.325928%,26.531982%,62.736511%);stroke-opacity:1;stroke-miterlimit:4;" d="M 4761.523438 2572.734375 L 4721.25 2580.78125 L 4721.25 2652.890625 L 4665.664062 2652.890625 C 4659.765625 2652.890625 4654.765625 2654.648438 4650.742188 2658.125 C 4646.71875 2661.601562 4644.726562 2666.054688 4644.726562 2671.445312 C 4644.726562 2676.796875 4646.71875 2681.210938 4650.742188 2684.726562 C 4654.765625 2688.203125 4659.765625 2689.960938 4665.664062 2689.960938 L 4741.015625 2689.960938 C 4747.1875 2689.960938 4752.148438 2688.007812 4755.898438 2684.101562 C 4759.648438 2680.234375 4761.523438 2675.195312 4761.523438 2669.023438 Z M 4656.40625 2522.773438 C 4634.648438 2522.773438 4614.296875 2526.835938 4595.351562 2535.039062 C 4576.40625 2543.242188 4559.882812 2554.648438 4545.78125 2569.296875 C 4531.679688 2583.945312 4520.664062 2601.054688 4512.734375 2620.664062 C 4504.84375 2640.273438 4500.859375 2661.484375 4500.859375 2684.335938 C 4500.859375 2706.875 4504.84375 2727.890625 4512.734375 2747.382812 C 4520.664062 2766.835938 4531.679688 2783.90625 4545.78125 2798.554688 C 4559.882812 2813.164062 4576.367188 2824.648438 4595.15625 2832.96875 C 4613.945312 2841.289062 4634.375 2845.46875 4656.40625 2845.46875 C 4677.070312 2845.46875 4694.84375 2842.773438 4709.765625 2837.421875 C 4724.6875 2832.03125 4739.648438 2823.164062 4754.6875 2810.820312 C 4756.835938 2809.21875 4758.515625 2807.539062 4759.726562 2805.78125 C 4760.9375 2804.023438 4761.757812 2802.304688 4762.148438 2800.546875 C 4762.539062 2798.789062 4762.734375 2796.71875 4762.734375 2794.296875 C 4762.734375 2789.21875 4760.9375 2784.882812 4757.304688 2781.40625 C 4753.671875 2777.929688 4749.257812 2776.054688 4744.023438 2775.78125 C 4738.789062 2775.507812 4733.867188 2777.265625 4729.296875 2781.015625 C 4719.375 2789.609375 4709.101562 2796.171875 4698.476562 2800.742188 C 4687.851562 2805.3125 4673.867188 2807.617188 4656.40625 2807.617188 C 4640.546875 2807.617188 4625.625 2804.375 4611.679688 2797.929688 C 4597.695312 2791.484375 4585.390625 2782.617188 4574.804688 2771.328125 C 4564.179688 2760.078125 4555.9375 2746.953125 4550.039062 2732.070312 C 4544.101562 2717.148438 4541.171875 2701.25 4541.171875 2684.335938 C 4541.171875 2667.109375 4544.101562 2651.09375 4550.039062 2636.171875 C 4555.9375 2621.289062 4564.179688 2608.164062 4574.804688 2596.875 C 4585.390625 2585.625 4597.695312 2576.796875 4611.679688 2570.507812 C 4625.625 2564.179688 4640.546875 2561.015625 4656.40625 2561.015625 C 4670.078125 2561.015625 4683.046875 2563.398438 4695.273438 2568.085938 C 4707.460938 2572.773438 4719.257812 2579.296875 4730.507812 2587.617188 C 4735.351562 2591.09375 4740.117188 2592.65625 4744.804688 2592.265625 C 4749.53125 2591.875 4753.476562 2589.960938 4756.71875 2586.601562 C 4759.921875 2583.242188 4761.523438 2578.632812 4761.523438 2572.734375 C 4761.523438 2570.039062 4761.054688 2567.421875 4760.117188 2564.84375 C 4759.179688 2562.304688 4757.5 2559.960938 4755.117188 2557.8125 C 4740.859375 2545.976562 4725.390625 2537.1875 4708.75 2531.40625 C 4692.109375 2525.664062 4674.648438 2522.773438 4656.40625 2522.773438 Z M 4656.40625 2522.773438 " transform="matrix(0.1,0,0,-0.1,0,500)"/>
<path style=" stroke:none;fill-rule:nonzero;fill:rgb(50%,79.998779%,15.684509%);fill-opacity:1;" d="M 87.453125 278.511719 C 85.703125 278.511719 84.066406 278.183594 82.542969 277.523438 C 81.019531 276.863281 79.691406 275.945312 78.558594 274.765625 C 77.421875 273.589844 76.535156 272.214844 75.898438 270.636719 C 75.261719 269.058594 74.945312 267.351562 74.945312 265.515625 C 74.945312 263.699219 75.261719 262.007812 75.898438 260.441406 C 76.535156 258.875 77.421875 257.503906 78.558594 256.324219 C 79.691406 255.148438 81.015625 254.226562 82.527344 253.554688 C 84.039062 252.886719 85.683594 252.550781 87.453125 252.550781 C 89.117188 252.550781 90.550781 252.765625 91.75 253.199219 C 92.949219 253.632812 94.152344 254.34375 95.363281 255.335938 C 95.535156 255.46875 95.671875 255.601562 95.769531 255.742188 C 95.863281 255.882812 95.929688 256.023438 95.964844 256.164062 C 95.996094 256.304688 96.011719 256.472656 96.011719 256.664062 C 96.011719 257.078125 95.863281 257.417969 95.574219 257.6875 C 95.28125 257.957031 94.929688 258.109375 94.519531 258.140625 C 94.109375 258.171875 93.710938 258.039062 93.320312 257.734375 C 92.523438 257.042969 91.695312 256.515625 90.84375 256.148438 C 89.988281 255.78125 88.859375 255.597656 87.453125 255.597656 C 86.179688 255.597656 84.980469 255.855469 83.855469 256.375 C 82.734375 256.890625 81.746094 257.605469 80.890625 258.515625 C 80.035156 259.421875 79.371094 260.476562 78.898438 261.675781 C 78.421875 262.871094 78.183594 264.152344 78.183594 265.515625 C 78.183594 266.898438 78.421875 268.1875 78.898438 269.386719 C 79.371094 270.585938 80.035156 271.640625 80.890625 272.546875 C 81.746094 273.453125 82.734375 274.164062 83.855469 274.671875 C 84.980469 275.179688 86.179688 275.433594 87.453125 275.433594 C 88.554688 275.433594 89.597656 275.242188 90.582031 274.863281 C 91.566406 274.488281 92.511719 273.964844 93.417969 273.292969 C 93.808594 273.011719 94.191406 272.886719 94.570312 272.921875 C 94.945312 272.953125 95.265625 273.105469 95.523438 273.375 C 95.785156 273.644531 95.914062 274.015625 95.914062 274.492188 C 95.914062 274.710938 95.871094 274.921875 95.785156 275.125 C 95.699219 275.328125 95.570312 275.519531 95.394531 275.691406 C 94.226562 276.621094 92.980469 277.324219 91.652344 277.800781 C 90.324219 278.273438 88.921875 278.511719 87.453125 278.511719 "/>
<path style=" stroke:none;fill-rule:nonzero;fill:rgb(50%,79.998779%,15.684509%);fill-opacity:1;" d="M 114.429688 275.464844 C 115.835938 275.464844 117.125 275.210938 118.304688 274.703125 C 119.480469 274.195312 120.503906 273.492188 121.367188 272.597656 C 122.230469 271.699219 122.894531 270.644531 123.359375 269.4375 C 123.824219 268.226562 124.058594 266.917969 124.058594 265.515625 C 124.058594 264.109375 123.824219 262.804688 123.359375 261.59375 C 122.894531 260.382812 122.230469 259.328125 121.367188 258.433594 C 120.503906 257.535156 119.480469 256.839844 118.304688 256.34375 C 117.125 255.84375 115.835938 255.597656 114.429688 255.597656 C 113.027344 255.597656 111.734375 255.84375 110.558594 256.34375 C 109.378906 256.839844 108.363281 257.535156 107.511719 258.433594 C 106.65625 259.328125 105.992188 260.382812 105.519531 261.59375 C 105.042969 262.804688 104.804688 264.109375 104.804688 265.515625 C 104.804688 266.917969 105.042969 268.226562 105.519531 269.4375 C 105.992188 270.644531 106.65625 271.699219 107.511719 272.597656 C 108.363281 273.492188 109.378906 274.195312 110.558594 274.703125 C 111.734375 275.210938 113.027344 275.464844 114.429688 275.464844 Z M 114.429688 278.511719 C 112.527344 278.511719 110.789062 278.191406 109.210938 277.554688 C 107.636719 276.917969 106.277344 276.019531 105.144531 274.863281 C 104.011719 273.710938 103.128906 272.335938 102.503906 270.75 C 101.875 269.160156 101.5625 267.414062 101.5625 265.515625 C 101.5625 263.613281 101.875 261.875 102.503906 260.296875 C 103.128906 258.71875 104.011719 257.351562 105.144531 256.195312 C 106.277344 255.039062 107.636719 254.144531 109.210938 253.507812 C 110.789062 252.867188 112.527344 252.550781 114.429688 252.550781 C 116.332031 252.550781 118.066406 252.867188 119.632812 253.507812 C 121.199219 254.144531 122.554688 255.039062 123.699219 256.195312 C 124.847656 257.351562 125.730469 258.71875 126.359375 260.296875 C 126.984375 261.875 127.296875 263.613281 127.296875 265.515625 C 127.296875 267.414062 126.984375 269.160156 126.359375 270.75 C 125.730469 272.335938 124.847656 273.710938 123.699219 274.863281 C 122.554688 276.019531 121.199219 276.917969 119.632812 277.554688 C 118.066406 278.191406 116.332031 278.511719 114.429688 278.511719 "/>
<path style=" stroke:none;fill-rule:nonzero;fill:rgb(50%,79.998779%,15.684509%);fill-opacity:1;" d="M 136.839844 278.1875 C 136.363281 278.1875 135.964844 278.023438 135.640625 277.699219 C 135.316406 277.378906 135.15625 276.976562 135.15625 276.503906 L 135.15625 254.558594 C 135.15625 254.0625 135.316406 253.65625 135.640625 253.34375 C 135.964844 253.03125 136.363281 252.875 136.839844 252.875 C 137.488281 252.875 137.984375 253.175781 138.332031 253.78125 L 148.476562 274.101562 L 147.4375 274.101562 L 157.324219 253.78125 C 157.671875 253.175781 158.167969 252.875 158.816406 252.875 C 159.289062 252.875 159.691406 253.03125 160.015625 253.34375 C 160.339844 253.65625 160.5 254.0625 160.5 254.558594 L 160.5 276.503906 C 160.5 276.976562 160.332031 277.378906 160 277.699219 C 159.664062 278.023438 159.269531 278.1875 158.816406 278.1875 C 158.339844 278.1875 157.941406 278.023438 157.617188 277.699219 C 157.292969 277.378906 157.128906 276.976562 157.128906 276.503906 L 157.128906 259.226562 L 157.777344 259.0625 L 149.285156 276.371094 C 148.917969 276.933594 148.433594 277.214844 147.828125 277.214844 C 147.113281 277.214844 146.597656 276.882812 146.273438 276.210938 L 137.878906 259.390625 L 138.523438 259.226562 L 138.523438 276.503906 C 138.523438 276.976562 138.363281 277.378906 138.039062 277.699219 C 137.714844 278.023438 137.316406 278.1875 136.839844 278.1875 "/>
<path style=" stroke:none;fill-rule:nonzero;fill:rgb(50%,79.998779%,15.684509%);fill-opacity:1;" d="M 172.964844 266.292969 L 177.761719 266.292969 C 178.753906 266.292969 179.628906 266.074219 180.386719 265.644531 C 181.140625 265.210938 181.734375 264.617188 182.167969 263.859375 C 182.601562 263.105469 182.816406 262.242188 182.816406 261.269531 C 182.816406 260.230469 182.601562 259.316406 182.167969 258.527344 C 181.734375 257.742188 181.140625 257.121094 180.386719 256.664062 C 179.628906 256.210938 178.753906 255.984375 177.761719 255.984375 L 172.964844 255.984375 Z M 171.277344 278.1875 C 170.800781 278.1875 170.402344 278.023438 170.078125 277.699219 C 169.753906 277.378906 169.59375 276.976562 169.59375 276.503906 L 169.59375 254.558594 C 169.59375 254.0625 169.753906 253.65625 170.078125 253.34375 C 170.402344 253.03125 170.800781 252.875 171.277344 252.875 L 177.761719 252.875 C 179.382812 252.875 180.816406 253.230469 182.070312 253.941406 C 183.324219 254.65625 184.300781 255.644531 185.003906 256.910156 C 185.707031 258.171875 186.058594 259.628906 186.058594 261.269531 C 186.058594 262.847656 185.707031 264.25 185.003906 265.480469 C 184.300781 266.714844 183.324219 267.675781 182.070312 268.367188 C 180.816406 269.058594 179.382812 269.402344 177.761719 269.402344 L 172.964844 269.402344 L 172.964844 276.503906 C 172.964844 276.976562 172.804688 277.378906 172.492188 277.699219 C 172.179688 278.023438 171.773438 278.1875 171.277344 278.1875 "/>
<path style=" stroke:none;fill-rule:nonzero;fill:rgb(50%,79.998779%,15.684509%);fill-opacity:1;" d="M 194.296875 278.1875 C 193.820312 278.1875 193.421875 278.023438 193.097656 277.699219 C 192.773438 277.378906 192.609375 276.976562 192.609375 276.503906 L 192.609375 254.558594 C 192.609375 254.0625 192.773438 253.65625 193.097656 253.34375 C 193.421875 253.03125 193.820312 252.875 194.296875 252.875 L 208.945312 252.875 C 209.441406 252.875 209.84375 253.019531 210.144531 253.3125 C 210.449219 253.601562 210.601562 253.988281 210.601562 254.460938 C 210.601562 254.914062 210.449219 255.28125 210.144531 255.5625 C 209.84375 255.84375 209.441406 255.984375 208.945312 255.984375 L 195.980469 255.984375 L 195.980469 263.859375 L 205.285156 263.859375 C 205.78125 263.859375 206.179688 264.007812 206.484375 264.300781 C 206.785156 264.589844 206.9375 264.964844 206.9375 265.417969 C 206.9375 265.871094 206.785156 266.242188 206.484375 266.535156 C 206.179688 266.828125 205.78125 266.972656 205.285156 266.972656 L 195.980469 266.972656 L 195.980469 275.074219 L 208.945312 275.074219 C 209.441406 275.074219 209.84375 275.21875 210.144531 275.496094 C 210.449219 275.777344 210.601562 276.144531 210.601562 276.601562 C 210.601562 277.074219 210.449219 277.457031 210.144531 277.75 C 209.84375 278.042969 209.441406 278.1875 208.945312 278.1875 L 194.296875 278.1875 "/>
<path style=" stroke:none;fill-rule:nonzero;fill:rgb(50%,79.998779%,15.684509%);fill-opacity:1;" d="M 226.535156 278.1875 C 226.0625 278.1875 225.660156 278.023438 225.335938 277.699219 C 225.011719 277.378906 224.851562 276.976562 224.851562 276.503906 L 224.851562 252.875 L 228.222656 252.875 L 228.222656 276.503906 C 228.222656 276.976562 228.058594 277.378906 227.734375 277.699219 C 227.410156 278.023438 227.011719 278.1875 226.535156 278.1875 Z M 217.851562 255.984375 C 217.394531 255.984375 217.023438 255.839844 216.730469 255.546875 C 216.4375 255.257812 216.292969 254.882812 216.292969 254.429688 C 216.292969 253.976562 216.4375 253.601562 216.730469 253.3125 C 217.023438 253.019531 217.394531 252.875 217.851562 252.875 L 235.191406 252.875 C 235.644531 252.875 236.015625 253.019531 236.308594 253.3125 C 236.601562 253.601562 236.746094 253.976562 236.746094 254.429688 C 236.746094 254.882812 236.601562 255.257812 236.308594 255.546875 C 236.015625 255.839844 235.644531 255.984375 235.191406 255.984375 L 217.851562 255.984375 "/>
<path style=" stroke:none;fill-rule:nonzero;fill:rgb(50%,79.998779%,15.684509%);fill-opacity:1;" d="M 244.96875 278.1875 C 244.492188 278.1875 244.09375 278.023438 243.769531 277.699219 C 243.445312 277.378906 243.28125 276.976562 243.28125 276.503906 L 243.28125 254.558594 C 243.28125 254.0625 243.445312 253.65625 243.769531 253.34375 C 244.09375 253.03125 244.492188 252.875 244.96875 252.875 C 245.464844 252.875 245.871094 253.03125 246.183594 253.34375 C 246.496094 253.65625 246.652344 254.0625 246.652344 254.558594 L 246.652344 276.503906 C 246.652344 276.976562 246.496094 277.378906 246.183594 277.699219 C 245.871094 278.023438 245.464844 278.1875 244.96875 278.1875 "/>
<path style=" stroke:none;fill-rule:nonzero;fill:rgb(50%,79.998779%,15.684509%);fill-opacity:1;" d="M 263.449219 278.1875 C 262.972656 278.1875 262.574219 278.023438 262.25 277.699219 C 261.925781 277.378906 261.765625 276.976562 261.765625 276.503906 L 261.765625 252.875 L 265.136719 252.875 L 265.136719 276.503906 C 265.136719 276.976562 264.972656 277.378906 264.648438 277.699219 C 264.324219 278.023438 263.925781 278.1875 263.449219 278.1875 Z M 254.761719 255.984375 C 254.308594 255.984375 253.9375 255.839844 253.644531 255.546875 C 253.351562 255.257812 253.207031 254.882812 253.207031 254.429688 C 253.207031 253.976562 253.351562 253.601562 253.644531 253.3125 C 253.9375 253.019531 254.308594 252.875 254.761719 252.875 L 272.105469 252.875 C 272.558594 252.875 272.929688 253.019531 273.222656 253.3125 C 273.515625 253.601562 273.660156 253.976562 273.660156 254.429688 C 273.660156 254.882812 273.515625 255.257812 273.222656 255.546875 C 272.929688 255.839844 272.558594 255.984375 272.105469 255.984375 L 254.761719 255.984375 "/>
<path style=" stroke:none;fill-rule:nonzero;fill:rgb(50%,79.998779%,15.684509%);fill-opacity:1;" d="M 281.882812 278.1875 C 281.40625 278.1875 281.007812 278.023438 280.683594 277.699219 C 280.359375 277.378906 280.195312 276.976562 280.195312 276.503906 L 280.195312 254.558594 C 280.195312 254.0625 280.359375 253.65625 280.683594 253.34375 C 281.007812 253.03125 281.40625 252.875 281.882812 252.875 C 282.378906 252.875 282.785156 253.03125 283.097656 253.34375 C 283.410156 253.65625 283.566406 254.0625 283.566406 254.558594 L 283.566406 276.503906 C 283.566406 276.976562 283.410156 277.378906 283.097656 277.699219 C 282.785156 278.023438 282.378906 278.1875 281.882812 278.1875 "/>
<path style=" stroke:none;fill-rule:nonzero;fill:rgb(50%,79.998779%,15.684509%);fill-opacity:1;" d="M 304.371094 275.464844 C 305.777344 275.464844 307.066406 275.210938 308.246094 274.703125 C 309.421875 274.195312 310.445312 273.492188 311.308594 272.597656 C 312.171875 271.699219 312.835938 270.644531 313.300781 269.4375 C 313.765625 268.226562 314 266.917969 314 265.515625 C 314 264.109375 313.765625 262.804688 313.300781 261.59375 C 312.835938 260.382812 312.171875 259.328125 311.308594 258.433594 C 310.445312 257.535156 309.421875 256.839844 308.246094 256.34375 C 307.066406 255.84375 305.777344 255.597656 304.371094 255.597656 C 302.96875 255.597656 301.675781 255.84375 300.5 256.34375 C 299.320312 256.839844 298.304688 257.535156 297.453125 258.433594 C 296.597656 259.328125 295.933594 260.382812 295.460938 261.59375 C 294.984375 262.804688 294.746094 264.109375 294.746094 265.515625 C 294.746094 266.917969 294.984375 268.226562 295.460938 269.4375 C 295.933594 270.644531 296.597656 271.699219 297.453125 272.597656 C 298.304688 273.492188 299.320312 274.195312 300.5 274.703125 C 301.675781 275.210938 302.96875 275.464844 304.371094 275.464844 Z M 304.371094 278.511719 C 302.46875 278.511719 300.730469 278.191406 299.152344 277.554688 C 297.574219 276.917969 296.222656 276.019531 295.085938 274.863281 C 293.953125 273.710938 293.070312 272.335938 292.445312 270.75 C 291.816406 269.160156 291.503906 267.414062 291.503906 265.515625 C 291.503906 263.613281 291.816406 261.875 292.445312 260.296875 C 293.070312 258.71875 293.953125 257.351562 295.085938 256.195312 C 296.222656 255.039062 297.574219 254.144531 299.152344 253.507812 C 300.730469 252.867188 302.46875 252.550781 304.371094 252.550781 C 306.273438 252.550781 308.007812 252.867188 309.574219 253.507812 C 311.140625 254.144531 312.496094 255.039062 313.640625 256.195312 C 314.785156 257.351562 315.671875 258.71875 316.300781 260.296875 C 316.925781 261.875 317.238281 263.613281 317.238281 265.515625 C 317.238281 267.414062 316.925781 269.160156 316.300781 270.75 C 315.671875 272.335938 314.785156 273.710938 313.640625 274.863281 C 312.496094 276.019531 311.140625 276.917969 309.574219 277.554688 C 308.007812 278.191406 306.273438 278.511719 304.371094 278.511719 "/>
<path style=" stroke:none;fill-rule:nonzero;fill:rgb(50%,79.998779%,15.684509%);fill-opacity:1;" d="M 326.75 278.1875 C 326.273438 278.1875 325.878906 278.023438 325.566406 277.699219 C 325.253906 277.378906 325.097656 276.976562 325.097656 276.503906 L 325.097656 254.558594 C 325.097656 254.0625 325.253906 253.65625 325.566406 253.34375 C 325.878906 253.03125 326.273438 252.875 326.75 252.875 C 327.265625 252.875 327.699219 253.078125 328.046875 253.488281 L 342.175781 272.289062 L 342.175781 254.558594 C 342.175781 254.0625 342.339844 253.65625 342.664062 253.34375 C 342.988281 253.03125 343.386719 252.875 343.863281 252.875 C 344.359375 252.875 344.757812 253.03125 345.0625 253.34375 C 345.363281 253.65625 345.515625 254.0625 345.515625 254.558594 L 345.515625 276.503906 C 345.515625 276.976562 345.363281 277.378906 345.0625 277.699219 C 344.757812 278.023438 344.359375 278.1875 343.863281 278.1875 C 343.644531 278.1875 343.414062 278.140625 343.164062 278.042969 C 342.917969 277.945312 342.71875 277.800781 342.566406 277.605469 L 328.433594 258.804688 L 328.433594 276.503906 C 328.433594 276.976562 328.277344 277.378906 327.964844 277.699219 C 327.652344 278.023438 327.246094 278.1875 326.75 278.1875 "/>
<path style=" stroke:none;fill-rule:nonzero;fill:rgb(50%,79.998779%,15.684509%);fill-opacity:1;" d="M 365.519531 297.878906 C 364.652344 297.878906 363.9375 297.585938 363.363281 296.996094 C 362.796875 296.40625 362.511719 295.695312 362.511719 294.871094 C 362.511719 294.007812 362.785156 293.300781 363.335938 292.746094 L 380.089844 273.160156 C 381.269531 271.785156 382.183594 270.488281 382.832031 269.269531 C 383.480469 268.050781 383.808594 266.890625 383.808594 265.789062 C 383.808594 264.058594 383.511719 262.5625 382.921875 261.304688 C 382.332031 260.046875 381.484375 259.070312 380.386719 258.382812 C 379.28125 257.695312 377.96875 257.351562 376.433594 257.351562 C 374.9375 257.351562 373.589844 257.734375 372.390625 258.503906 C 371.191406 259.269531 370.246094 260.292969 369.558594 261.570312 C 368.871094 262.847656 368.527344 264.253906 368.527344 265.789062 C 368.527344 266.574219 368.242188 267.261719 367.671875 267.851562 C 367.101562 268.441406 366.382812 268.738281 365.519531 268.738281 C 364.691406 268.738281 363.984375 268.441406 363.394531 267.851562 C 362.804688 267.261719 362.511719 266.574219 362.511719 265.789062 C 362.511719 263.113281 363.117188 260.726562 364.339844 258.621094 C 365.558594 256.515625 367.21875 254.855469 369.324219 253.636719 C 371.429688 252.417969 373.796875 251.808594 376.433594 251.808594 C 379.105469 251.808594 381.425781 252.378906 383.394531 253.515625 C 385.359375 254.65625 386.882812 256.269531 387.964844 258.355469 C 389.046875 260.4375 389.589844 262.917969 389.589844 265.789062 C 389.589844 267.046875 389.320312 268.324219 388.792969 269.621094 C 388.261719 270.921875 387.59375 272.160156 386.785156 273.339844 C 385.980469 274.519531 385.164062 275.582031 384.339844 276.523438 L 370.828125 291.863281 L 387.347656 291.863281 C 388.210938 291.863281 388.9375 292.167969 389.527344 292.777344 C 390.117188 293.386719 390.414062 294.085938 390.414062 294.871094 C 390.414062 295.695312 390.117188 296.40625 389.527344 296.996094 C 388.9375 297.585938 388.210938 297.878906 387.347656 297.878906 L 365.519531 297.878906 "/>
<path style=" stroke:none;fill-rule:nonzero;fill:rgb(50%,79.998779%,15.684509%);fill-opacity:1;" d="M 409.664062 291.742188 C 411.472656 291.742188 412.96875 291.007812 414.144531 289.53125 C 415.324219 288.058594 416.210938 286.042969 416.800781 283.484375 C 417.390625 280.929688 417.6875 278.039062 417.6875 274.8125 C 417.6875 271.589844 417.390625 268.699219 416.800781 266.140625 C 416.210938 263.585938 415.324219 261.558594 414.144531 260.066406 C 412.96875 258.570312 411.472656 257.824219 409.664062 257.824219 C 407.855469 257.824219 406.359375 258.5625 405.179688 260.035156 C 404 261.511719 403.113281 263.527344 402.523438 266.082031 C 401.9375 268.640625 401.640625 271.550781 401.640625 274.8125 C 401.640625 278.078125 401.9375 280.988281 402.523438 283.546875 C 403.113281 286.101562 404.007812 288.105469 405.210938 289.5625 C 406.40625 291.015625 407.894531 291.742188 409.664062 291.742188 Z M 409.664062 297.878906 C 406.675781 297.878906 404.128906 296.964844 402.023438 295.136719 C 399.917969 293.308594 398.316406 290.675781 397.214844 287.230469 C 396.113281 283.789062 395.5625 279.652344 395.5625 274.8125 C 395.5625 269.976562 396.113281 265.839844 397.214844 262.394531 C 398.316406 258.953125 399.917969 256.320312 402.023438 254.488281 C 404.128906 252.660156 406.675781 251.746094 409.664062 251.746094 C 412.652344 251.746094 415.199219 252.683594 417.304688 254.550781 C 419.40625 256.417969 421.007812 259.070312 422.109375 262.515625 C 423.210938 265.953125 423.761719 270.054688 423.761719 274.8125 C 423.761719 279.570312 423.210938 283.671875 422.109375 287.113281 C 421.007812 290.554688 419.40625 293.210938 417.304688 295.078125 C 415.199219 296.945312 412.652344 297.878906 409.664062 297.878906 "/>
<path style=" stroke:none;fill-rule:nonzero;fill:rgb(50%,79.998779%,15.684509%);fill-opacity:1;" d="M 432.558594 297.878906 C 431.691406 297.878906 430.976562 297.585938 430.402344 296.996094 C 429.835938 296.40625 429.550781 295.695312 429.550781 294.871094 C 429.550781 294.007812 429.824219 293.300781 430.375 292.746094 L 447.128906 273.160156 C 448.308594 271.785156 449.222656 270.488281 449.871094 269.269531 C 450.519531 268.050781 450.847656 266.890625 450.847656 265.789062 C 450.847656 264.058594 450.550781 262.5625 449.960938 261.304688 C 449.371094 260.046875 448.523438 259.070312 447.425781 258.382812 C 446.320312 257.695312 445.007812 257.351562 443.472656 257.351562 C 441.976562 257.351562 440.628906 257.734375 439.429688 258.503906 C 438.230469 259.269531 437.285156 260.292969 436.597656 261.570312 C 435.910156 262.847656 435.566406 264.253906 435.566406 265.789062 C 435.566406 266.574219 435.28125 267.261719 434.710938 267.851562 C 434.140625 268.441406 433.421875 268.738281 432.558594 268.738281 C 431.730469 268.738281 431.023438 268.441406 430.433594 267.851562 C 429.84375 267.261719 429.550781 266.574219 429.550781 265.789062 C 429.550781 263.113281 430.15625 260.726562 431.378906 258.621094 C 432.597656 256.515625 434.257812 254.855469 436.363281 253.636719 C 438.46875 252.417969 440.835938 251.808594 443.472656 251.808594 C 446.144531 251.808594 448.464844 252.378906 450.433594 253.515625 C 452.398438 254.65625 453.921875 256.269531 455.003906 258.355469 C 456.085938 260.4375 456.628906 262.917969 456.628906 265.789062 C 456.628906 267.046875 456.359375 268.324219 455.832031 269.621094 C 455.300781 270.921875 454.632812 272.160156 453.824219 273.339844 C 453.019531 274.519531 452.203125 275.582031 451.378906 276.523438 L 437.867188 291.863281 L 454.386719 291.863281 C 455.25 291.863281 455.980469 292.167969 456.566406 292.777344 C 457.15625 293.386719 457.453125 294.085938 457.453125 294.871094 C 457.453125 295.695312 457.15625 296.40625 456.566406 296.996094 C 455.980469 297.585938 455.25 297.878906 454.386719 297.878906 L 432.558594 297.878906 "/>
<path style=" stroke:none;fill-rule:nonzero;fill:rgb(50%,79.998779%,15.684509%);fill-opacity:1;" d="M 473.941406 297.878906 C 473.152344 297.878906 472.464844 297.585938 471.875 296.996094 C 471.285156 296.40625 470.992188 295.695312 470.992188 294.871094 L 470.992188 258.886719 L 466.683594 260.714844 C 466.015625 260.988281 465.386719 261.128906 464.796875 261.128906 C 463.933594 261.128906 463.214844 260.851562 462.644531 260.300781 C 462.074219 259.75 461.789062 259.042969 461.789062 258.179688 C 461.789062 257.550781 461.945312 256.976562 462.261719 256.46875 C 462.574219 255.957031 463.066406 255.582031 463.734375 255.347656 L 472.9375 252.042969 C 473.136719 251.964844 473.332031 251.90625 473.527344 251.863281 C 473.726562 251.828125 473.902344 251.808594 474.058594 251.808594 C 474.964844 251.808594 475.683594 252.09375 476.210938 252.660156 C 476.742188 253.230469 477.007812 253.96875 477.007812 254.875 L 477.007812 294.871094 C 477.007812 295.695312 476.714844 296.40625 476.125 296.996094 C 475.535156 297.585938 474.804688 297.878906 473.941406 297.878906 "/>
<path style=" stroke:none;fill-rule:nonzero;fill:rgb(50%,79.998779%,15.684509%);fill-opacity:1;" d="M 412.210938 242.265625 C 412.734375 242.789062 412.996094 243.414062 412.996094 244.140625 C 412.996094 244.863281 412.734375 245.488281 412.210938 246.011719 C 411.6875 246.535156 411.0625 246.800781 410.335938 246.800781 C 409.609375 246.800781 408.984375 246.535156 408.460938 246.011719 C 407.9375 245.488281 407.675781 244.863281 407.675781 244.140625 C 407.675781 243.414062 407.9375 242.789062 408.460938 242.265625 C 408.984375 241.742188 409.609375 241.480469 410.335938 241.480469 C 411.0625 241.480469 411.6875 241.742188 412.210938 242.265625 "/>
<path style="fill:none;stroke-width:11.1765;stroke-linecap:butt;stroke-linejoin:miter;stroke:rgb(50%,79.998779%,15.684509%);stroke-opacity:1;stroke-miterlimit:4;" d="M 4122.109375 2577.34375 C 4127.34375 2572.109375 4129.960938 2565.859375 4129.960938 2558.59375 C 4129.960938 2551.367188 4127.34375 2545.117188 4122.109375 2539.882812 C 4116.875 2534.648438 4110.625 2531.992188 4103.359375 2531.992188 C 4096.09375 2531.992188 4089.84375 2534.648438 4084.609375 2539.882812 C 4079.375 2545.117188 4076.757812 2551.367188 4076.757812 2558.59375 C 4076.757812 2565.859375 4079.375 2572.109375 4084.609375 2577.34375 C 4089.84375 2582.578125 4096.09375 2585.195312 4103.359375 2585.195312 C 4110.625 2585.195312 4116.875 2582.578125 4122.109375 2577.34375 Z M 4122.109375 2577.34375 " transform="matrix(0.1,0,0,-0.1,0,500)"/>
<path style=" stroke:none;fill-rule:nonzero;fill:rgb(15.325928%,26.531982%,62.736511%);fill-opacity:1;" d="M 411.804688 216.441406 C 412.195312 216.828125 412.390625 217.320312 412.390625 217.910156 L 412.390625 235.839844 C 412.390625 236.457031 412.195312 236.953125 411.804688 237.332031 C 411.417969 237.707031 410.925781 237.894531 410.335938 237.894531 C 409.71875 237.894531 409.222656 237.707031 408.847656 237.332031 C 408.46875 236.953125 408.28125 236.457031 408.28125 235.839844 L 408.28125 217.910156 C 408.28125 217.320312 408.46875 216.828125 408.847656 216.441406 C 409.222656 216.050781 409.71875 215.855469 410.335938 215.855469 C 410.925781 215.855469 411.417969 216.050781 411.804688 216.441406 "/>
<path style="fill:none;stroke-width:11.1765;stroke-linecap:butt;stroke-linejoin:miter;stroke:rgb(15.325928%,26.531982%,62.736511%);stroke-opacity:1;stroke-miterlimit:4;" d="M 4118.046875 2835.585938 C 4121.953125 2831.71875 4123.90625 2826.796875 4123.90625 2820.898438 L 4123.90625 2641.601562 C 4123.90625 2635.429688 4121.953125 2630.46875 4118.046875 2626.679688 C 4114.179688 2622.929688 4109.257812 2621.054688 4103.359375 2621.054688 C 4097.1875 2621.054688 4092.226562 2622.929688 4088.476562 2626.679688 C 4084.6875 2630.46875 4082.8125 2635.429688 4082.8125 2641.601562 L 4082.8125 2820.898438 C 4082.8125 2826.796875 4084.6875 2831.71875 4088.476562 2835.585938 C 4092.226562 2839.492188 4097.1875 2841.445312 4103.359375 2841.445312 C 4109.257812 2841.445312 4114.179688 2839.492188 4118.046875 2835.585938 Z M 4118.046875 2835.585938 " transform="matrix(0.1,0,0,-0.1,0,500)"/>
<path style=" stroke:none;fill-rule:nonzero;fill:rgb(15.325928%,26.531982%,62.736511%);fill-opacity:1;" d="M 494.808594 327.683594 L 492.574219 327.683594 L 492.574219 193.5625 L 494.808594 193.5625 L 494.808594 327.683594 "/>
</g>
</svg>
