<?xml version="1.0" encoding="UTF-8" standalone="no"?>
<svg
   xmlns:dc="http://purl.org/dc/elements/1.1/"
   xmlns:cc="http://creativecommons.org/ns#"
   xmlns:rdf="http://www.w3.org/1999/02/22-rdf-syntax-ns#"
   xmlns:svg="http://www.w3.org/2000/svg"
   xmlns="http://www.w3.org/2000/svg"
   width="570pt"
   height="160pt"
   viewBox="0 0 570 160"
   version="1.1"
   id="svg143">
  <metadata
     id="metadata149">
    <rdf:RDF>
      <cc:Work
         rdf:about="">
        <dc:format>image/svg+xml</dc:format>
        <dc:type
           rdf:resource="http://purl.org/dc/dcmitype/StillImage" />
        <dc:title></dc:title>
        <cc:license
           rdf:resource="http://creativecommons.org/licenses/by-nc/4.0/" />
      </cc:Work>
      <cc:License
         rdf:about="http://creativecommons.org/licenses/by-nc/4.0/">
        <cc:permits
           rdf:resource="http://creativecommons.org/ns#Reproduction" />
        <cc:permits
           rdf:resource="http://creativecommons.org/ns#Distribution" />
        <cc:requires
           rdf:resource="http://creativecommons.org/ns#Notice" />
        <cc:requires
           rdf:resource="http://creativecommons.org/ns#Attribution" />
        <cc:prohibits
           rdf:resource="http://creativecommons.org/ns#CommercialUse" />
        <cc:permits
           rdf:resource="http://creativecommons.org/ns#DerivativeWorks" />
      </cc:License>
    </rdf:RDF>
  </metadata>
  <defs
     id="defs147" />
  <g
     id="surface1"
     transform="translate(-61.725939,-181.66506)">
    <path
       style="fill:#26429e;fill-opacity:1;fill-rule:nonzero;stroke:none"
       d="m 513.9375,291.80469 v -28.22657 c 0,-1.57812 1.27734,-2.85546 2.85937,-2.85546 1.57422,0 2.85938,1.27734 2.85938,2.85546 v 28.22657 c 0,1.57812 -1.28516,2.85547 -2.85938,2.85547 -1.58203,0 -2.85937,-1.27735 -2.85937,-2.85547"
       id="path10" />
    <path
       style="fill:#26429e;fill-opacity:1;fill-rule:nonzero;stroke:none"
       d="M 529.82031,286.26172 V 278 c 0,-1.58203 1.28125,-2.85938 2.86328,-2.85938 1.57813,0 2.85157,1.27735 2.85157,2.85938 v 8.26172 c 0,1.57812 -1.27344,2.85547 -2.85157,2.85547 -1.58203,0 -2.86328,-1.27735 -2.86328,-2.85547"
       id="path12" />
    <path
       style="fill:#26429e;fill-opacity:1;fill-rule:nonzero;stroke:none"
       d="m 521.71875,286.26172 v -10.16797 c 0,-1.57813 1.28125,-2.85938 2.85937,-2.85938 1.57813,0 2.85938,1.28125 2.85938,2.85938 v 10.16797 c 0,1.57812 -1.28125,2.85547 -2.85938,2.85547 -1.57812,0 -2.85937,-1.27735 -2.85937,-2.85547"
       id="path14" />
    <path
       style="fill:#26429e;fill-opacity:1;fill-rule:nonzero;stroke:none"
       d="m 510.27344,304.78516 c -1.98828,-2.61329 -2.73047,-5.08204 -2.89063,-5.62891 l -1.90234,-6.35547 c -0.28125,-0.92969 -0.0742,-1.92578 0.55078,-2.66406 l 7.625,-9.05078 c 1.01562,-1.21094 2.82031,-1.36328 4.03125,-0.34766 1.20312,1.01563 1.36328,2.82031 0.34375,4.02734 l -6.63281,7.8711 1.46484,4.875 0.0234,0.0859 0.004,0.0117 c 0,0.004 0.004,0.0117 0.004,0.0195 0.0117,0.0391 0.0352,0.10937 0.0664,0.20312 0.0625,0.19141 0.16797,0.48438 0.32422,0.84766 0.30859,0.71875 0.8125,1.69531 1.52734,2.6289 1.5,1.88282 3.53516,3.56641 7.28906,3.59766 0.35547,0 0.72266,-0.0156 1.11328,-0.0508 l 0.25,-0.008 h 10.00782 c 2.10546,-0.004 3.8125,-1.70704 3.8125,-3.81641 v -21.44531 h 0.004 c 0,-1.57422 1.27735,-2.85547 2.85547,-2.85547 1.57813,0 2.85938,1.28125 2.85938,2.85547 v 21.44531 c 0,5.26562 -4.26563,9.53125 -9.53125,9.53516 h -9.8711 c -0.51562,0.0391 -1.01172,0.0625 -1.5,0.0625 -0.0312,0 -0.0625,0 -0.0937,0 -5.70703,0 -9.6289,-3.02344 -11.73437,-5.84375"
       id="path16" />
    <path
       style="fill:#26429e;fill-opacity:1;fill-rule:nonzero;stroke:none"
       d="m 589.99609,273.89453 c -2.16406,-2.84375 -2.85156,-5.51172 -2.92187,-5.73047 l -0.0156,-0.0781 -1.90625,-8.26172 c -0.17187,-0.7461 -0.0351,-1.54297 0.375,-2.1836 l 7.625,-11.91406 c 0.85157,-1.32812 2.61719,-1.71484 3.94922,-0.86328 1.33203,0.85156 1.71485,2.61719 0.8711,3.94922 l -6.98047,10.89844 1.61718,7.00781 0.004,0.008 c 0,0.004 0,0.008 0.004,0.0117 0.008,0.0391 0.0312,0.10938 0.0625,0.20703 0.0625,0.1875 0.17187,0.48438 0.32812,0.84375 0.30469,0.71875 0.8086,1.69141 1.52735,2.63281 1.5,1.88282 3.53515,3.5625 7.28906,3.59375 0.35547,0 0.72265,-0.0117 1.10937,-0.0508 l 0.25391,-0.008 h 10.00781 c 2.10547,-0.004 3.8086,-1.70703 3.8125,-3.8125 v -24.30469 c 0,-1.58203 1.28125,-2.85937 2.85938,-2.85937 1.57812,0 2.85937,1.27734 2.85937,2.85937 v 24.30469 c -0.004,5.26172 -4.26562,9.52734 -9.53125,9.53125 h -9.89453 c -0.50391,0.0391 -1,0.0586 -1.47656,0.0586 -0.0352,0 -0.0664,0 -0.0937,0 -5.71094,0 -9.63281,-3.01953 -11.73438,-5.83984"
       id="path18" />
    <path
       style="fill:#26429e;fill-opacity:1;fill-rule:nonzero;stroke:none"
       d="m 593.65625,255.48047 v -21.83594 c 0,-1.58203 1.28125,-2.85937 2.85937,-2.85937 1.57813,0 2.85547,1.27734 2.85547,2.85937 v 21.83594 c 0,1.57812 -1.27734,2.85937 -2.85547,2.85937 -1.57812,0 -2.85937,-1.28125 -2.85937,-2.85937"
       id="path20" />
    <path
       style="fill:#26429e;fill-opacity:1;fill-rule:nonzero;stroke:none"
       d="m 609.53906,255.53125 v -21.57031 c 0,-1.58203 1.28125,-2.86328 2.85938,-2.86328 1.58203,0 2.85937,1.28125 2.85937,2.86328 v 21.57031 c 0,1.58203 -1.27734,2.85937 -2.85937,2.85937 -1.57813,0 -2.85938,-1.27734 -2.85938,-2.85937"
       id="path22" />
    <path
       style="fill:#26429e;fill-opacity:1;fill-rule:nonzero;stroke:none"
       d="m 601.44141,255.5 v -27.26172 c 0,-1.57422 1.28125,-2.85547 2.85546,-2.85547 1.58204,0 2.85938,1.28125 2.85938,2.85547 V 255.5 c 0,1.57422 -1.27734,2.85937 -2.85938,2.85937 -1.57421,0 -2.85546,-1.28515 -2.85546,-2.85937"
       id="path24" />
    <path
       style="fill:#26429e;fill-opacity:1;fill-rule:nonzero;stroke:none"
       d="M 554.11328,274.10156 V 245.9375 c 0,-1.57813 1.27734,-2.85938 2.85547,-2.85938 1.58203,0 2.85937,1.28125 2.85937,2.85938 v 28.16406 c 0,1.57813 -1.27734,2.85547 -2.85937,2.85547 -1.57813,0 -2.85547,-1.27734 -2.85547,-2.85547"
       id="path26" />
    <path
       style="fill:#26429e;fill-opacity:1;fill-rule:nonzero;stroke:none"
       d="m 559.82812,292.92187 -0.6289,-0.0703 c -0.13281,-0.0312 -1.27735,-0.28906 -2.76563,-0.98047 -1.47265,-0.70312 -3.35547,-1.82031 -4.76172,-3.84375 l -0.1914,-0.32422 L 541,267.05469 c -0.71875,-1.41016 -0.15625,-3.13282 1.25391,-3.84375 1.40625,-0.71485 3.1289,-0.15625 3.84375,1.2539 l 10.39062,20.46485 c 0.49609,0.65625 1.35156,1.26562 2.19141,1.67187 0.61718,0.3086 1.19922,0.50391 1.52343,0.60156 h 13.44922 c 2.10547,-0.004 3.8086,-1.70703 3.8086,-3.80859 v -21.44531 h 0.004 c 0,-1.58203 1.27735,-2.85938 2.85547,-2.85938 1.57813,0 2.85938,1.27735 2.85938,2.85938 v 21.44531 c 0,5.26172 -4.26563,9.52734 -9.52735,9.52734 h -13.82422"
       id="path28" />
    <path
       style="fill:#26429e;fill-opacity:1;fill-rule:nonzero;stroke:none"
       d="m 569.99609,268.61719 v -8.25782 c 0,-1.58203 1.27735,-2.85937 2.85938,-2.85937 1.57812,0 2.85937,1.27734 2.85937,2.85937 v 8.25782 c 0,1.58203 -1.28125,2.85937 -2.85937,2.85937 -1.58203,0 -2.85938,-1.27734 -2.85938,-2.85937"
       id="path30" />
    <path
       style="fill:#26429e;fill-opacity:1;fill-rule:nonzero;stroke:none"
       d="m 561.89453,268.61719 v -10.16797 c 0,-1.57813 1.28125,-2.85547 2.85938,-2.85547 1.57421,0 2.85546,1.27734 2.85546,2.85547 v 10.16797 c 0,1.58203 -1.28125,2.85937 -2.85546,2.85937 -1.57813,0 -2.85938,-1.27734 -2.85938,-2.85937"
       id="path32" />
    <path
       style="fill:#7fca26;fill-opacity:1;fill-rule:nonzero;stroke:none"
       d="m 521.26562,250.4375 c 0,2.01172 -1.63281,3.64844 -3.64843,3.64844 -2.01563,0 -3.64844,-1.63672 -3.64844,-3.64844 0,-2.01563 1.63281,-3.64844 3.64844,-3.64844 2.01562,0 3.64843,1.63281 3.64843,3.64844"
       id="path34" />
    <path
       style="fill:#7fca26;fill-opacity:1;fill-rule:nonzero;stroke:none"
       d="m 560.1875,233.75781 c 0,2.01563 -1.63281,3.64844 -3.64844,3.64844 -2.01562,0 -3.64844,-1.63281 -3.64844,-3.64844 0,-2.01562 1.63282,-3.64844 3.64844,-3.64844 2.01563,0 3.64844,1.63282 3.64844,3.64844"
       id="path36" />
    <path
       style="fill:#7fca26;fill-opacity:1;fill-rule:nonzero;stroke:none"
       d="m 569.91406,233.75781 c 0,2.01563 -1.6289,3.64844 -3.64453,3.64844 -2.01562,0 -3.64844,-1.63281 -3.64844,-3.64844 0,-2.01562 1.63282,-3.64844 3.64844,-3.64844 2.01563,0 3.64453,1.63282 3.64453,3.64844"
       id="path38" />
    <path
       style="fill:#7fca26;fill-opacity:1;fill-rule:nonzero;stroke:none"
       d="m 599.10937,216.38281 c 0,2.01172 -1.63281,3.64844 -3.64843,3.64844 -2.01953,0 -3.64844,-1.63672 -3.64844,-3.64844 0,-2.01562 1.62891,-3.65234 3.64844,-3.65234 2.01562,0 3.64843,1.63672 3.64843,3.65234"
       id="path40" />
    <path
       style="fill:#7fca26;fill-opacity:1;fill-rule:nonzero;stroke:none"
       d="m 608.31641,216.38281 c 0,2.01172 -1.63282,3.64844 -3.64844,3.64844 -2.01563,0 -3.64844,-1.63672 -3.64844,-3.64844 0,-2.01562 1.63281,-3.65234 3.64844,-3.65234 2.01562,0 3.64844,1.63672 3.64844,3.65234"
       id="path42" />
    <path
       style="fill:#7fca26;fill-opacity:1;fill-rule:nonzero;stroke:none"
       d="m 617.52734,216.38281 c 0,2.01172 -1.63281,3.64844 -3.64843,3.64844 -2.01563,0 -3.64844,-1.63672 -3.64844,-3.64844 0,-2.01562 1.63281,-3.65234 3.64844,-3.65234 2.01562,0 3.64843,1.63672 3.64843,3.65234"
       id="path44" />
    <path
       style="fill:none;stroke:#26429e;stroke-width:22.3531;stroke-linecap:round;stroke-linejoin:round;stroke-miterlimit:4;stroke-opacity:1"
       d="m 5246.4453,2497.3438 h 245.1953"
       transform="matrix(0.1,0,0,-0.1,0,500)"
       id="path46" />
    <path
       style="fill:none;stroke:#26429e;stroke-width:22.3531;stroke-linecap:round;stroke-linejoin:round;stroke-miterlimit:4;stroke-opacity:1"
       d="m 5151.875,2667.6563 h 339.7656"
       transform="matrix(0.1,0,0,-0.1,0,500)"
       id="path48" />
    <path
       style="fill:none;stroke:#26429e;stroke-width:22.3531;stroke-linecap:round;stroke-linejoin:round;stroke-miterlimit:4;stroke-opacity:1"
       d="m 5739.8828,2667.6563 h 158.3594"
       transform="matrix(0.1,0,0,-0.1,0,500)"
       id="path50" />
    <path
       style="fill:none;stroke:#26429e;stroke-width:22.3531;stroke-linecap:round;stroke-linejoin:round;stroke-miterlimit:4;stroke-opacity:1"
       d="m 5148.7891,2834.4531 h 739.0234"
       transform="matrix(0.1,0,0,-0.1,0,500)"
       id="path52" />
    <path
       style="fill:#26429e;fill-opacity:1;fill-rule:nonzero;stroke:none"
       d="m 77.875,247.32031 c -0.589844,0 -1.089844,-0.19922 -1.492188,-0.60156 -0.402343,-0.40625 -0.601562,-0.90234 -0.601562,-1.49219 v -27.27734 c 0,-0.61719 0.199219,-1.1211 0.601562,-1.50781 0.402344,-0.39063 0.902344,-0.58594 1.492188,-0.58594 0.804688,0 1.421875,0.375 1.851562,1.1289 l 12.613282,25.26172 h -1.289063 l 12.285159,-25.26172 c 0.42969,-0.7539 1.05078,-1.1289 1.85547,-1.1289 0.58984,0 1.08593,0.19531 1.49218,0.58594 0.40235,0.38671 0.60157,0.89062 0.60157,1.50781 v 27.27734 c 0,0.58985 -0.20703,1.08594 -0.625,1.49219 -0.41407,0.40234 -0.90625,0.60156 -1.46875,0.60156 -0.58985,0 -1.08985,-0.19922 -1.49219,-0.60156 -0.40234,-0.40625 -0.60156,-0.90234 -0.60156,-1.49219 v -21.47265 l 0.80468,-0.20313 -10.55859,21.51563 c -0.453125,0.69921 -1.058594,1.04687 -1.8125,1.04687 -0.882812,0 -1.527344,-0.41797 -1.933594,-1.25 l -10.433594,-20.91016 0.804688,-0.19921 v 21.47265 c 0,0.58985 -0.199219,1.08594 -0.601562,1.49219 -0.402344,0.40234 -0.902344,0.60156 -1.492188,0.60156"
       id="path54" />
    <path
       style="fill:none;stroke:#26429e;stroke-width:11.1765;stroke-linecap:butt;stroke-linejoin:miter;stroke-miterlimit:4;stroke-opacity:1"
       d="m 778.75,2526.7969 c -5.89844,0 -10.89844,1.9922 -14.92188,6.0156 -4.02343,4.0625 -6.01562,9.0234 -6.01562,14.9219 v 272.7734 c 0,6.1719 1.99219,11.211 6.01562,15.0781 4.02344,3.9063 9.02344,5.8594 14.92188,5.8594 8.04687,0 14.21875,-3.75 18.51562,-11.289 l 126.13282,-252.6172 h -12.89063 l 122.85159,252.6172 c 4.2969,7.539 10.5078,11.289 18.5547,11.289 5.8984,0 10.8593,-1.9531 14.9218,-5.8594 4.0235,-3.8671 6.0157,-8.9062 6.0157,-15.0781 v -272.7734 c 0,-5.8985 -2.0703,-10.8594 -6.25,-14.9219 -4.1407,-4.0234 -9.0625,-6.0156 -14.6875,-6.0156 -5.8985,0 -10.8985,1.9922 -14.9219,6.0156 -4.0234,4.0625 -6.0156,9.0234 -6.0156,14.9219 v 214.7265 l 8.0468,2.0313 -105.5859,-215.1563 c -4.53125,-6.9921 -10.58594,-10.4687 -18.125,-10.4687 -8.82813,0 -15.27344,4.1797 -19.33594,12.5 l -104.33594,209.1016 8.04688,1.9921 v -214.7265 c 0,-5.8985 -1.99219,-10.8594 -6.01563,-14.9219 -4.02343,-4.0234 -9.02343,-6.0156 -14.92187,-6.0156 z m 0,0"
       transform="matrix(0.1,0,0,-0.1,0,500)"
       id="path56" />
    <path
       style="fill:#26429e;fill-opacity:1;fill-rule:nonzero;stroke:none"
       d="m 129.42187,243.9375 c 1.74219,0 3.34766,-0.31641 4.8125,-0.94922 1.46485,-0.62891 2.73438,-1.50391 3.8086,-2.61719 1.07422,-1.11328 1.89844,-2.42187 2.47656,-3.92968 0.57813,-1.50391 0.86719,-3.12891 0.86719,-4.875 0,-1.74219 -0.28906,-3.36719 -0.86719,-4.875 -0.57812,-1.50391 -1.40234,-2.8125 -2.47656,-3.92579 -1.07422,-1.11328 -2.34375,-1.98046 -3.8086,-2.60156 -1.46484,-0.61328 -3.07031,-0.92578 -4.8125,-0.92578 -1.74609,0 -3.35156,0.3125 -4.8164,0.92578 -1.46484,0.6211 -2.72656,1.48828 -3.78516,2.60156 -1.0625,1.11329 -1.89062,2.42188 -2.48047,3.92579 -0.58984,1.50781 -0.88671,3.13281 -0.88671,4.875 0,1.74609 0.29687,3.37109 0.88671,4.875 0.58985,1.50781 1.41797,2.8164 2.48047,3.92968 1.0586,1.11328 2.32032,1.98828 3.78516,2.61719 1.46484,0.63281 3.07031,0.94922 4.8164,0.94922 z m 0,3.78516 c -2.36328,0 -4.52734,-0.39454 -6.48828,-1.1875 -1.96093,-0.79297 -3.64453,-1.90625 -5.05468,-3.34375 -1.41016,-1.4375 -2.50782,-3.14063 -3.28516,-5.11719 -0.78125,-1.97266 -1.16797,-4.14063 -1.16797,-6.50781 0,-2.36329 0.38672,-4.52344 1.16797,-6.48438 0.77734,-1.96094 1.875,-3.66016 3.28516,-5.09766 1.41015,-1.43359 3.09375,-2.55078 5.05468,-3.34375 1.96094,-0.78906 4.125,-1.1875 6.48828,-1.1875 2.36329,0 4.51563,0.39844 6.46485,1.1875 1.94922,0.79297 3.63281,1.91016 5.05469,3.34375 1.42578,1.4375 2.52734,3.13672 3.30468,5.09766 0.77735,1.96094 1.16797,4.12109 1.16797,6.48438 0,2.36718 -0.39062,4.53515 -1.16797,6.50781 -0.77734,1.97656 -1.8789,3.67969 -3.30468,5.11719 -1.42188,1.4375 -3.10547,2.55078 -5.05469,3.34375 -1.94922,0.79296 -4.10156,1.1875 -6.46485,1.1875"
       id="path58" />
    <path
       style="fill:none;stroke:#26429e;stroke-width:11.1765;stroke-linecap:butt;stroke-linejoin:miter;stroke-miterlimit:4;stroke-opacity:1"
       d="m 1294.2188,2560.625 c 17.4218,0 33.4765,3.1641 48.125,9.4922 14.6484,6.2891 27.3437,15.0391 38.0859,26.1719 10.7422,11.1328 18.9844,24.2187 24.7656,39.2968 5.7813,15.0391 8.6719,31.2891 8.6719,48.75 0,17.4219 -2.8906,33.6719 -8.6719,48.75 -5.7812,15.0391 -14.0234,28.125 -24.7656,39.2579 -10.7422,11.1328 -23.4375,19.8046 -38.0859,26.0156 -14.6485,6.1328 -30.7032,9.2578 -48.125,9.2578 -17.461,0 -33.5157,-3.125 -48.1641,-9.2578 -14.6484,-6.211 -27.2656,-14.8828 -37.8516,-26.0156 -10.625,-11.1329 -18.9062,-24.2188 -24.8047,-39.2579 -5.8984,-15.0781 -8.8671,-31.3281 -8.8671,-48.75 0,-17.4609 2.9687,-33.7109 8.8671,-48.75 5.8985,-15.0781 14.1797,-28.164 24.8047,-39.2968 10.586,-11.1328 23.2032,-19.8828 37.8516,-26.1719 14.6484,-6.3281 30.7031,-9.4922 48.1641,-9.4922 z m 0,-37.8516 c -23.6329,0 -45.2735,3.9454 -64.8829,11.875 -19.6093,7.9297 -36.4453,19.0625 -50.5468,33.4375 -14.1016,14.375 -25.0782,31.4063 -32.8516,51.1719 -7.8125,19.7266 -11.6797,41.4063 -11.6797,65.0781 0,23.6329 3.8672,45.2344 11.6797,64.8438 7.7734,19.6094 18.75,36.6016 32.8516,50.9766 14.1015,14.3359 30.9375,25.5078 50.5468,33.4375 19.6094,7.8906 41.25,11.875 64.8829,11.875 23.6328,0 45.1562,-3.9844 64.6484,-11.875 19.4922,-7.9297 36.3281,-19.1016 50.5469,-33.4375 14.2578,-14.375 25.2734,-31.3672 33.0468,-50.9766 7.7735,-19.6094 11.6797,-41.2109 11.6797,-64.8438 0,-23.6718 -3.9062,-45.3515 -11.6797,-65.0781 -7.7734,-19.7656 -18.789,-36.7969 -33.0468,-51.1719 -14.2188,-14.375 -31.0547,-25.5078 -50.5469,-33.4375 -19.4922,-7.9296 -41.0156,-11.875 -64.6484,-11.875 z m 0,0"
       transform="matrix(0.1,0,0,-0.1,0,500)"
       id="path60" />
    <path
       style="fill:#26429e;fill-opacity:1;fill-rule:nonzero;stroke:none"
       d="m 155.66406,243.61328 h 5.19531 c 2.25782,0 4.25,-0.51562 5.98438,-1.55078 1.73047,-1.03125 3.09375,-2.45703 4.08984,-4.26953 0.99219,-1.8125 1.49219,-3.88672 1.49219,-6.22656 0,-2.36329 -0.5,-4.44532 -1.49219,-6.24219 -0.99609,-1.80078 -2.35937,-3.21094 -4.08984,-4.23047 -1.73438,-1.01953 -3.72656,-1.53125 -5.98438,-1.53125 h -5.19531 z m -2.09375,3.70703 c -0.59375,0 -1.08984,-0.19922 -1.49219,-0.60156 -0.40234,-0.40625 -0.60546,-0.90234 -0.60546,-1.49219 v -27.27734 c 0,-0.61719 0.20312,-1.1211 0.60546,-1.50781 0.40235,-0.39063 0.89844,-0.58594 1.49219,-0.58594 h 7.28906 c 2.3125,0 4.41407,0.38281 6.30469,1.14844 1.89453,0.76562 3.53906,1.85156 4.9375,3.26171 1.39453,1.41016 2.46875,3.07032 3.22266,4.97657 0.75,1.90625 1.1289,4.01562 1.1289,6.32422 0,2.3125 -0.3789,4.42578 -1.1289,6.34765 -0.75391,1.92188 -1.82813,3.58594 -3.22266,4.9961 -1.39844,1.41015 -3.04297,2.49609 -4.9375,3.26171 -1.89062,0.76563 -3.99219,1.14844 -6.30469,1.14844 h -7.28906"
       id="path62" />
    <path
       style="fill:none;stroke:#26429e;stroke-width:11.1765;stroke-linecap:butt;stroke-linejoin:miter;stroke-miterlimit:4;stroke-opacity:1"
       d="m 1556.6406,2563.8672 h 51.9532 c 22.5781,0 42.5,5.1562 59.8437,15.5078 17.3047,10.3125 30.9375,24.5703 40.8984,42.6953 9.9219,18.125 14.9219,38.8672 14.9219,62.2656 0,23.6329 -5,44.4532 -14.9219,62.4219 -9.9609,18.0078 -23.5937,32.1094 -40.8984,42.3047 -17.3437,10.1953 -37.2656,15.3125 -59.8437,15.3125 h -51.9532 z m -20.9375,-37.0703 c -5.9375,0 -10.8984,1.9922 -14.9218,6.0156 -4.0235,4.0625 -6.0547,9.0234 -6.0547,14.9219 v 272.7734 c 0,6.1719 2.0312,11.211 6.0547,15.0781 4.0234,3.9063 8.9843,5.8594 14.9218,5.8594 h 72.8907 c 23.125,0 44.1406,-3.8281 63.0468,-11.4844 18.9453,-7.6562 35.3907,-18.5156 49.375,-32.6171 13.9453,-14.1016 24.6875,-30.7032 32.2266,-49.7657 7.5,-19.0625 11.2891,-40.1562 11.2891,-63.2422 0,-23.125 -3.7891,-44.2578 -11.2891,-63.4765 -7.5391,-19.2188 -18.2813,-35.8594 -32.2266,-49.961 -13.9843,-14.1015 -30.4297,-24.9609 -49.375,-32.6171 -18.9062,-7.6563 -39.9218,-11.4844 -63.0468,-11.4844 z m 0,0"
       transform="matrix(0.1,0,0,-0.1,0,500)"
       id="path64" />
    <path
       style="fill:#26429e;fill-opacity:1;fill-rule:nonzero;stroke:none"
       d="m 184.66797,247.32031 c -0.59375,0 -1.08985,-0.19922 -1.49219,-0.60156 -0.40234,-0.40625 -0.60547,-0.90234 -0.60547,-1.49219 v -27.27734 c 0,-0.61719 0.20313,-1.1211 0.60547,-1.50781 0.40234,-0.39063 0.89844,-0.58594 1.49219,-0.58594 h 18.21094 c 0.61718,0 1.11328,0.17969 1.48828,0.54297 0.3789,0.36328 0.5664,0.83984 0.5664,1.42968 0,0.56641 -0.1875,1.02344 -0.5664,1.3711 -0.375,0.35156 -0.8711,0.52344 -1.48828,0.52344 h -16.11719 v 9.79296 h 11.5625 c 0.61719,0 1.11328,0.17969 1.49219,0.54297 0.375,0.36328 0.5625,0.82422 0.5625,1.38672 0,0.56641 -0.1875,1.03125 -0.5625,1.39063 -0.37891,0.36328 -0.875,0.54687 -1.49219,0.54687 h -11.5625 v 10.07031 h 16.11719 c 0.61718,0 1.11328,0.17579 1.48828,0.52344 0.3789,0.35156 0.5664,0.80469 0.5664,1.3711 0,0.58984 -0.1875,1.0664 -0.5664,1.42968 -0.375,0.36328 -0.8711,0.54297 -1.48828,0.54297 h -18.21094"
       id="path66" />
    <path
       style="fill:none;stroke:#26429e;stroke-width:11.1765;stroke-linecap:butt;stroke-linejoin:miter;stroke-miterlimit:4;stroke-opacity:1"
       d="m 1846.6797,2526.7969 c -5.9375,0 -10.8984,1.9922 -14.9219,6.0156 -4.0234,4.0625 -6.0547,9.0234 -6.0547,14.9219 v 272.7734 c 0,6.1719 2.0313,11.211 6.0547,15.0781 4.0235,3.9063 8.9844,5.8594 14.9219,5.8594 h 182.1094 c 6.1718,0 11.1328,-1.7969 14.8828,-5.4297 3.789,-3.6328 5.664,-8.3984 5.664,-14.2968 0,-5.6641 -1.875,-10.2344 -5.664,-13.711 -3.75,-3.5156 -8.711,-5.2344 -14.8828,-5.2344 h -161.1719 v -97.9296 h 115.625 c 6.1719,0 11.1328,-1.7969 14.9219,-5.4297 3.75,-3.6328 5.625,-8.2422 5.625,-13.8672 0,-5.6641 -1.875,-10.3125 -5.625,-13.9063 -3.7891,-3.6328 -8.75,-5.4687 -14.9219,-5.4687 h -115.625 v -100.7031 h 161.1719 c 6.1718,0 11.1328,-1.7579 14.8828,-5.2344 3.789,-3.5156 5.664,-8.0469 5.664,-13.711 0,-5.8984 -1.875,-10.664 -5.664,-14.2968 -3.75,-3.6328 -8.711,-5.4297 -14.8828,-5.4297 z m 0,0"
       transform="matrix(0.1,0,0,-0.1,0,500)"
       id="path68" />
    <path
       style="fill:#26429e;fill-opacity:1;fill-rule:nonzero;stroke:none"
       d="m 212.00781,247.32031 c -0.58984,0 -1.08203,-0.19922 -1.47265,-0.60156 -0.38672,-0.40625 -0.58204,-0.90234 -0.58204,-1.49219 v -27.27734 c 0,-0.58985 0.19922,-1.08594 0.60547,-1.48828 0.40235,-0.40235 0.88282,-0.60547 1.44922,-0.60547 0.58985,0 1.08594,0.20312 1.48828,0.60547 0.40625,0.40234 0.60547,0.89843 0.60547,1.48828 v 25.18359 h 14.58594 c 0.58984,0 1.08594,0.19922 1.49219,0.60156 0.40234,0.40625 0.60156,0.90235 0.60156,1.49219 0,0.58985 -0.19922,1.08594 -0.60156,1.49219 -0.40625,0.40234 -0.90235,0.60156 -1.49219,0.60156 h -16.67969"
       id="path70" />
    <path
       style="fill:none;stroke:#26429e;stroke-width:11.1765;stroke-linecap:butt;stroke-linejoin:miter;stroke-miterlimit:4;stroke-opacity:1"
       d="m 2120.0781,2526.7969 c -5.8984,0 -10.8203,1.9922 -14.7265,6.0156 -3.8672,4.0625 -5.8203,9.0234 -5.8203,14.9219 v 272.7734 c 0,5.8985 1.9921,10.8594 6.0546,14.8828 4.0235,4.0235 8.8282,6.0547 14.4922,6.0547 5.8985,0 10.8594,-2.0312 14.8828,-6.0547 4.0625,-4.0234 6.0547,-8.9843 6.0547,-14.8828 v -251.8359 h 145.8594 c 5.8984,0 10.8594,-1.9922 14.9219,-6.0156 4.0234,-4.0625 6.0156,-9.0235 6.0156,-14.9219 0,-5.8985 -1.9922,-10.8594 -6.0156,-14.9219 -4.0625,-4.0234 -9.0235,-6.0156 -14.9219,-6.0156 z m 0,0"
       transform="matrix(0.1,0,0,-0.1,0,500)"
       id="path72" />
    <path
       style="fill:#26429e;fill-opacity:1;fill-rule:nonzero;stroke:none"
       d="m 261.72266,247.72266 c -2.17579,0 -4.20704,-0.40625 -6.10157,-1.22657 -1.89453,-0.82031 -3.54687,-1.96093 -4.95703,-3.42578 -1.41015,-1.46484 -2.51172,-3.17578 -3.30469,-5.13672 -0.79296,-1.96093 -1.1875,-4.08203 -1.1875,-6.36718 0,-2.25391 0.39454,-4.35547 1.1875,-6.30469 0.79297,-1.94531 1.89454,-3.65235 3.30469,-5.11719 1.41016,-1.46094 3.05469,-2.60937 4.9375,-3.44141 1.87891,-0.83203 3.91797,-1.25 6.1211,-1.25 2.07031,0 3.84765,0.26954 5.33984,0.80469 1.49219,0.53906 2.98828,1.42578 4.49219,2.66016 0.21484,0.16015 0.38281,0.32812 0.5039,0.5039 0.1211,0.17579 0.19922,0.34766 0.24219,0.52344 0.0391,0.17578 0.0586,0.38281 0.0586,0.625 0,0.50781 -0.17968,0.9336 -0.54296,1.26953 -0.36329,0.33594 -0.80079,0.52344 -1.3086,0.5625 -0.51172,0.0391 -1.00781,-0.1289 -1.49219,-0.5039 -0.99218,-0.85938 -2.01953,-1.51563 -3.08203,-1.97266 -1.0625,-0.45703 -2.46484,-0.6875 -4.21093,-0.6875 -1.58204,0 -3.07422,0.32422 -4.47266,0.96875 -1.39453,0.64453 -2.625,1.53125 -3.68359,2.66016 -1.0625,1.125 -1.88672,2.4375 -2.48047,3.92578 -0.58985,1.49219 -0.88672,3.08203 -0.88672,4.77344 0,1.72265 0.29687,3.32421 0.88672,4.8164 0.59375,1.48828 1.41797,2.80078 2.48047,3.92969 1.05859,1.125 2.28906,2.00781 3.68359,2.63672 1.39844,0.63281 2.89062,0.94922 4.47266,0.94922 1.37109,0 2.66796,-0.23828 3.89062,-0.70703 1.21875,-0.46875 2.39453,-1.1211 3.52344,-1.95313 0.48437,-0.34766 0.96094,-0.50391 1.42969,-0.46484 0.46875,0.0391 0.86718,0.23047 1.1914,0.5664 0.32031,0.33594 0.48047,0.79688 0.48047,1.38672 0,0.26953 -0.0547,0.53125 -0.16016,0.78906 -0.10937,0.25391 -0.26953,0.48829 -0.48437,0.70313 -1.44922,1.15625 -3,2.02734 -4.65234,2.62109 -1.65235,0.58985 -3.39063,0.88282 -5.21875,0.88282"
       id="path74" />
    <path
       style="fill:none;stroke:#26429e;stroke-width:11.1765;stroke-linecap:butt;stroke-linejoin:miter;stroke-miterlimit:4;stroke-opacity:1"
       d="m 2617.2266,2522.7734 c -21.7578,0 -42.0703,4.0625 -61.0157,12.2657 -18.9453,8.2031 -35.4687,19.6093 -49.5703,34.2578 -14.1015,14.6484 -25.1172,31.7578 -33.0468,51.3672 -7.9297,19.6093 -11.875,40.8203 -11.875,63.6718 0,22.5391 3.9453,43.5547 11.875,63.0469 7.9296,19.4531 18.9453,36.5235 33.0468,51.1719 14.1016,14.6094 30.5469,26.0937 49.375,34.4141 18.7891,8.3203 39.1797,12.5 61.211,12.5 20.7031,0 38.4765,-2.6954 53.3984,-8.0469 14.9219,-5.3906 29.8828,-14.2578 44.9219,-26.6016 2.1484,-1.6015 3.8281,-3.2812 5.039,-5.039 1.211,-1.7579 1.9922,-3.4766 2.4219,-5.2344 0.3906,-1.7578 0.586,-3.8281 0.586,-6.25 0,-5.0781 -1.7969,-9.336 -5.4297,-12.6953 -3.6328,-3.3594 -8.0078,-5.2344 -13.086,-5.625 -5.1172,-0.3907 -10.0781,1.289 -14.9218,5.039 -9.9219,8.5938 -20.1954,15.1563 -30.8204,19.7266 -10.625,4.5703 -24.6484,6.875 -42.1093,6.875 -15.8203,0 -30.7422,-3.2422 -44.7266,-9.6875 -13.9453,-6.4453 -26.25,-15.3125 -36.8359,-26.6016 -10.625,-11.25 -18.8672,-24.375 -24.8047,-39.2578 -5.8985,-14.9219 -8.8672,-30.8203 -8.8672,-47.7344 0,-17.2265 2.9687,-33.2421 8.8672,-48.164 5.9375,-14.8828 14.1797,-28.0078 24.8047,-39.2969 10.5859,-11.25 22.8906,-20.0781 36.8359,-26.3672 13.9844,-6.3281 28.9063,-9.4922 44.7266,-9.4922 13.7109,0 26.6797,2.3828 38.9062,7.0703 12.1875,4.6875 23.9453,11.211 35.2344,19.5313 4.8437,3.4766 9.6094,5.0391 14.2969,4.6484 4.6875,-0.3906 8.6718,-2.3047 11.914,-5.664 3.2032,-3.3594 4.8047,-7.9688 4.8047,-13.8672 0,-2.6953 -0.5469,-5.3125 -1.6015,-7.8906 -1.0938,-2.5391 -2.6954,-4.8829 -4.8438,-7.0313 -14.4922,-11.5625 -30,-20.2734 -46.5234,-26.2109 -16.5235,-5.8985 -33.9063,-8.8282 -52.1875,-8.8282 z m 0,0"
       transform="matrix(0.1,0,0,-0.1,0,500)"
       id="path76" />
    <path
       style="fill:#26429e;fill-opacity:1;fill-rule:nonzero;stroke:none"
       d="m 291.52734,243.9375 c 1.7461,0 3.35157,-0.31641 4.81641,-0.94922 1.46484,-0.62891 2.73437,-1.50391 3.80859,-2.61719 1.07422,-1.11328 1.89844,-2.42187 2.47657,-3.92968 0.57812,-1.50391 0.86718,-3.12891 0.86718,-4.875 0,-1.74219 -0.28906,-3.36719 -0.86718,-4.875 -0.57813,-1.50391 -1.40235,-2.8125 -2.47657,-3.92579 -1.07422,-1.11328 -2.34375,-1.98046 -3.80859,-2.60156 -1.46484,-0.61328 -3.07031,-0.92578 -4.81641,-0.92578 -1.74609,0 -3.34765,0.3125 -4.8125,0.92578 -1.46484,0.6211 -2.72656,1.48828 -3.78515,2.60156 -1.0625,1.11329 -1.89063,2.42188 -2.48047,3.92579 -0.58985,1.50781 -0.88672,3.13281 -0.88672,4.875 0,1.74609 0.29687,3.37109 0.88672,4.875 0.58984,1.50781 1.41797,2.8164 2.48047,3.92968 1.05859,1.11328 2.32031,1.98828 3.78515,2.61719 1.46485,0.63281 3.06641,0.94922 4.8125,0.94922 z m 0,3.78516 c -2.36328,0 -4.52343,-0.39454 -6.48437,-1.1875 -1.96094,-0.79297 -3.64844,-1.90625 -5.0586,-3.34375 -1.41015,-1.4375 -2.5039,-3.14063 -3.28125,-5.11719 -0.78125,-1.97266 -1.16796,-4.14063 -1.16796,-6.50781 0,-2.36329 0.38671,-4.52344 1.16796,-6.48438 0.77735,-1.96094 1.8711,-3.66016 3.28125,-5.09766 1.41016,-1.43359 3.09766,-2.55078 5.0586,-3.34375 1.96094,-0.78906 4.12109,-1.1875 6.48437,-1.1875 2.36719,0 4.51953,0.39844 6.46875,1.1875 1.94532,0.79297 3.63282,1.91016 5.05469,3.34375 1.42578,1.4375 2.52344,3.13672 3.30469,5.09766 0.77734,1.96094 1.16797,4.12109 1.16797,6.48438 0,2.36718 -0.39063,4.53515 -1.16797,6.50781 -0.78125,1.97656 -1.87891,3.67969 -3.30469,5.11719 -1.42187,1.4375 -3.10937,2.55078 -5.05469,3.34375 -1.94922,0.79296 -4.10156,1.1875 -6.46875,1.1875"
       id="path78" />
    <path
       style="fill:none;stroke:#26429e;stroke-width:11.1765;stroke-linecap:butt;stroke-linejoin:miter;stroke-miterlimit:4;stroke-opacity:1"
       d="m 2915.2734,2560.625 c 17.461,0 33.5157,3.1641 48.1641,9.4922 14.6484,6.2891 27.3438,15.0391 38.0859,26.1719 10.7422,11.1328 18.9844,24.2187 24.7657,39.2968 5.7812,15.0391 8.6718,31.2891 8.6718,48.75 0,17.4219 -2.8906,33.6719 -8.6718,48.75 -5.7813,15.0391 -14.0235,28.125 -24.7657,39.2579 -10.7421,11.1328 -23.4375,19.8046 -38.0859,26.0156 -14.6484,6.1328 -30.7031,9.2578 -48.1641,9.2578 -17.4609,0 -33.4765,-3.125 -48.125,-9.2578 -14.6484,-6.211 -27.2656,-14.8828 -37.8515,-26.0156 -10.625,-11.1329 -18.9063,-24.2188 -24.8047,-39.2579 -5.8984,-15.0781 -8.8672,-31.3281 -8.8672,-48.75 0,-17.4609 2.9688,-33.7109 8.8672,-48.75 5.8984,-15.0781 14.1797,-28.164 24.8047,-39.2968 10.5859,-11.1328 23.2031,-19.8828 37.8515,-26.1719 14.6485,-6.3281 30.6641,-9.4922 48.125,-9.4922 z m 0,-37.8516 c -23.6328,0 -45.2343,3.9454 -64.8437,11.875 -19.6094,7.9297 -36.4844,19.0625 -50.5859,33.4375 -14.1016,14.375 -25.0391,31.4063 -32.8125,51.1719 -7.8125,19.7266 -11.6797,41.4063 -11.6797,65.0781 0,23.6329 3.8672,45.2344 11.6797,64.8438 7.7734,19.6094 18.7109,36.6016 32.8125,50.9766 14.1015,14.3359 30.9765,25.5078 50.5859,33.4375 19.6094,7.8906 41.2109,11.875 64.8437,11.875 23.6719,0 45.1954,-3.9844 64.6875,-11.875 19.4532,-7.9297 36.3282,-19.1016 50.5469,-33.4375 14.2578,-14.375 25.2344,-31.3672 33.0469,-50.9766 7.7734,-19.6094 11.6797,-41.2109 11.6797,-64.8438 0,-23.6718 -3.9063,-45.3515 -11.6797,-65.0781 -7.8125,-19.7656 -18.7891,-36.7969 -33.0469,-51.1719 -14.2187,-14.375 -31.0937,-25.5078 -50.5469,-33.4375 -19.4921,-7.9296 -41.0156,-11.875 -64.6875,-11.875 z m 0,0"
       transform="matrix(0.1,0,0,-0.1,0,500)"
       id="path80" />
    <path
       style="fill:#26429e;fill-opacity:1;fill-rule:nonzero;stroke:none"
       d="m 326.57812,247.96484 c -2.57812,0 -4.85937,-0.47656 -6.84765,-1.42968 -1.98828,-0.95313 -3.53906,-2.27735 -4.65235,-3.96875 -1.11718,-1.69141 -1.67187,-3.625 -1.67187,-5.80079 v -18.8164 c 0,-0.61719 0.19922,-1.1211 0.60547,-1.50781 0.40234,-0.39063 0.89844,-0.58594 1.48828,-0.58594 0.61719,0 1.12109,0.19531 1.51172,0.58594 0.38672,0.38671 0.58203,0.89062 0.58203,1.50781 v 18.8164 c 0,1.44922 0.38281,2.73438 1.14844,3.84766 0.76562,1.11328 1.82812,1.98828 3.18359,2.61719 1.35547,0.63281 2.90625,0.94922 4.65234,0.94922 1.69532,0 3.19141,-0.31641 4.49219,-0.94922 1.30469,-0.62891 2.32422,-1.50391 3.0625,-2.61719 0.73828,-1.11328 1.10938,-2.39844 1.10938,-3.84766 v -18.8164 c 0,-0.61719 0.19922,-1.1211 0.60547,-1.50781 0.40234,-0.39063 0.89843,-0.58594 1.48828,-0.58594 0.61718,0 1.11328,0.19531 1.49218,0.58594 0.375,0.38671 0.5625,0.89062 0.5625,1.50781 v 18.8164 c 0,2.17579 -0.54296,4.10938 -1.6289,5.80079 -1.08985,1.6914 -2.60156,3.01562 -4.53516,3.96875 -1.93359,0.95312 -4.14844,1.42968 -6.64844,1.42968"
       id="path82" />
    <path
       style="fill:none;stroke:#26429e;stroke-width:11.1765;stroke-linecap:butt;stroke-linejoin:miter;stroke-miterlimit:4;stroke-opacity:1"
       d="m 3265.7813,2520.3516 c -25.7813,0 -48.5938,4.7656 -68.4766,14.2968 -19.8828,9.5313 -35.3906,22.7735 -46.5234,39.6875 -11.1719,16.9141 -16.7188,36.25 -16.7188,58.0079 v 188.164 c 0,6.1719 1.9922,11.211 6.0547,15.0781 4.0234,3.9063 8.9844,5.8594 14.8828,5.8594 6.1719,0 11.2109,-1.9531 15.1172,-5.8594 3.8672,-3.8671 5.8203,-8.9062 5.8203,-15.0781 v -188.164 c 0,-14.4922 3.8281,-27.3438 11.4844,-38.4766 7.6562,-11.1328 18.2812,-19.8828 31.8359,-26.1719 13.5547,-6.3281 29.0625,-9.4922 46.5235,-9.4922 16.9531,0 31.914,3.1641 44.9218,9.4922 13.0469,6.2891 23.2422,15.0391 30.625,26.1719 7.3828,11.1328 11.0938,23.9844 11.0938,38.4766 v 188.164 c 0,6.1719 1.9922,11.211 6.0547,15.0781 4.0234,3.9063 8.9843,5.8594 14.8828,5.8594 6.1719,0 11.1328,-1.9531 14.9219,-5.8594 3.75,-3.8671 5.625,-8.9062 5.625,-15.0781 v -188.164 c 0,-21.7579 -5.4297,-41.0938 -16.2891,-58.0079 -10.8984,-16.914 -26.0156,-30.1562 -45.3516,-39.6875 -19.3359,-9.5312 -41.4843,-14.2968 -66.4843,-14.2968 z m 0,0"
       transform="matrix(0.1,0,0,-0.1,0,500)"
       id="path84" />
    <path
       style="fill:#26429e;fill-opacity:1;fill-rule:nonzero;stroke:none"
       d="m 348.95703,247.32031 c -0.59375,0 -1.08203,-0.19922 -1.47266,-0.60156 -0.38671,-0.40625 -0.58203,-0.90234 -0.58203,-1.49219 v -27.27734 c 0,-0.61719 0.19532,-1.1211 0.58203,-1.50781 0.39063,-0.39063 0.87891,-0.58594 1.47266,-0.58594 0.64453,0 1.17969,0.2539 1.60938,0.76562 l 17.5664,23.36719 v -22.03906 c 0,-0.61719 0.20313,-1.1211 0.60547,-1.50781 0.40234,-0.39063 0.89844,-0.58594 1.49219,-0.58594 0.61719,0 1.11328,0.19531 1.48828,0.58594 0.375,0.38671 0.5625,0.89062 0.5625,1.50781 v 27.27734 c 0,0.58985 -0.1875,1.08594 -0.5625,1.49219 -0.375,0.40234 -0.87109,0.60156 -1.48828,0.60156 -0.26953,0 -0.5586,-0.0586 -0.86719,-0.17969 -0.30859,-0.12109 -0.55859,-0.30078 -0.74609,-0.54296 l -17.56641,-23.3711 v 22 c 0,0.58985 -0.19531,1.08594 -0.58203,1.49219 -0.39063,0.40234 -0.89453,0.60156 -1.51172,0.60156"
       id="path86" />
    <path
       style="fill:none;stroke:#26429e;stroke-width:11.1765;stroke-linecap:butt;stroke-linejoin:miter;stroke-miterlimit:4;stroke-opacity:1"
       d="m 3489.5703,2526.7969 c -5.9375,0 -10.8203,1.9922 -14.7265,6.0156 -3.8672,4.0625 -5.8204,9.0234 -5.8204,14.9219 v 272.7734 c 0,6.1719 1.9532,11.211 5.8204,15.0781 3.9062,3.9063 8.789,5.8594 14.7265,5.8594 6.4453,0 11.7969,-2.539 16.0938,-7.6562 l 175.664,-233.6719 v 220.3906 c 0,6.1719 2.0313,11.211 6.0547,15.0781 4.0235,3.9063 8.9844,5.8594 14.9219,5.8594 6.1719,0 11.1328,-1.9531 14.8828,-5.8594 3.75,-3.8671 5.625,-8.9062 5.625,-15.0781 v -272.7734 c 0,-5.8985 -1.875,-10.8594 -5.625,-14.9219 -3.75,-4.0234 -8.7109,-6.0156 -14.8828,-6.0156 -2.6953,0 -5.5859,0.5859 -8.6719,1.7969 -3.0859,1.2109 -5.5859,3.0078 -7.4609,5.4296 l -175.6641,233.711 v -220 c 0,-5.8985 -1.9531,-10.8594 -5.8203,-14.9219 -3.9062,-4.0234 -8.9453,-6.0156 -15.1172,-6.0156 z m 0,0"
       transform="matrix(0.1,0,0,-0.1,0,500)"
       id="path88" />
    <path
       style="fill:#26429e;fill-opacity:1;fill-rule:nonzero;stroke:none"
       d="m 389.4375,247.32031 c -0.58984,0 -1.08594,-0.19922 -1.49219,-0.60156 -0.40234,-0.40625 -0.60156,-0.90234 -0.60156,-1.49219 v -29.37109 h 4.1875 v 29.37109 c 0,0.58985 -0.19922,1.08594 -0.60156,1.49219 -0.40625,0.40234 -0.90235,0.60156 -1.49219,0.60156 z m -10.79688,-27.59765 c -0.5664,0 -1.02734,-0.17969 -1.39062,-0.54297 -0.36328,-0.36328 -0.54297,-0.82813 -0.54297,-1.39063 0,-0.5625 0.17969,-1.02734 0.54297,-1.39062 0.36328,-0.36328 0.82422,-0.54297 1.39062,-0.54297 h 21.55469 c 0.5625,0 1.02735,0.17969 1.39063,0.54297 0.35937,0.36328 0.54297,0.82812 0.54297,1.39062 0,0.5625 -0.1836,1.02735 -0.54297,1.39063 -0.36328,0.36328 -0.82813,0.54297 -1.39063,0.54297 h -21.55469"
       id="path90" />
    <path
       style="fill:none;stroke:#26429e;stroke-width:11.1765;stroke-linecap:butt;stroke-linejoin:miter;stroke-miterlimit:4;stroke-opacity:1"
       d="m 3894.375,2526.7969 c -5.8984,0 -10.8594,1.9922 -14.9219,6.0156 -4.0234,4.0625 -6.0156,9.0234 -6.0156,14.9219 v 293.7109 h 41.875 v -293.7109 c 0,-5.8985 -1.9922,-10.8594 -6.0156,-14.9219 -4.0625,-4.0234 -9.0235,-6.0156 -14.9219,-6.0156 z m -107.9687,275.9765 c -5.6641,0 -10.2735,1.7969 -13.9063,5.4297 -3.6328,3.6328 -5.4297,8.2813 -5.4297,13.9063 0,5.625 1.7969,10.2734 5.4297,13.9062 3.6328,3.6328 8.2422,5.4297 13.9063,5.4297 h 215.5468 c 5.625,0 10.2735,-1.7969 13.9063,-5.4297 3.5937,-3.6328 5.4297,-8.2812 5.4297,-13.9062 0,-5.625 -1.836,-10.2735 -5.4297,-13.9063 -3.6328,-3.6328 -8.2813,-5.4297 -13.9063,-5.4297 z m 0,0"
       transform="matrix(0.1,0,0,-0.1,0,500)"
       id="path92" />
    <path
       style="fill:#26429e;fill-opacity:1;fill-rule:nonzero;stroke:none"
       d="m 420.62109,247.32031 c -0.59375,0 -1.08203,-0.19922 -1.47265,-0.60156 -0.38672,-0.40625 -0.58203,-0.90234 -0.58203,-1.49219 v -27.27734 c 0,-0.61719 0.19531,-1.1211 0.58203,-1.50781 0.39062,-0.39063 0.8789,-0.58594 1.47265,-0.58594 0.64453,0 1.1836,0.2539 1.60938,0.76562 l 17.5664,23.36719 v -22.03906 c 0,-0.61719 0.20313,-1.1211 0.60547,-1.50781 0.40235,-0.39063 0.89844,-0.58594 1.49219,-0.58594 0.61719,0 1.11328,0.19531 1.48828,0.58594 0.37891,0.38671 0.56641,0.89062 0.56641,1.50781 v 27.27734 c 0,0.58985 -0.1875,1.08594 -0.56641,1.49219 -0.375,0.40234 -0.87109,0.60156 -1.48828,0.60156 -0.26953,0 -0.55859,-0.0586 -0.86719,-0.17969 -0.30859,-0.12109 -0.55859,-0.30078 -0.74609,-0.54296 l -17.56641,-23.3711 v 22 c 0,0.58985 -0.19531,1.08594 -0.58203,1.49219 -0.39062,0.40234 -0.89453,0.60156 -1.51172,0.60156"
       id="path94" />
    <path
       style="fill:none;stroke:#26429e;stroke-width:11.1765;stroke-linecap:butt;stroke-linejoin:miter;stroke-miterlimit:4;stroke-opacity:1"
       d="m 4206.2109,2526.7969 c -5.9375,0 -10.8203,1.9922 -14.7265,6.0156 -3.8672,4.0625 -5.8203,9.0234 -5.8203,14.9219 v 272.7734 c 0,6.1719 1.9531,11.211 5.8203,15.0781 3.9062,3.9063 8.789,5.8594 14.7265,5.8594 6.4453,0 11.836,-2.539 16.0938,-7.6562 l 175.664,-233.6719 v 220.3906 c 0,6.1719 2.0313,11.211 6.0547,15.0781 4.0235,3.9063 8.9844,5.8594 14.9219,5.8594 6.1719,0 11.1328,-1.9531 14.8828,-5.8594 3.7891,-3.8671 5.6641,-8.9062 5.6641,-15.0781 v -272.7734 c 0,-5.8985 -1.875,-10.8594 -5.6641,-14.9219 -3.75,-4.0234 -8.7109,-6.0156 -14.8828,-6.0156 -2.6953,0 -5.5859,0.5859 -8.6719,1.7969 -3.0859,1.2109 -5.5859,3.0078 -7.4609,5.4296 l -175.6641,233.711 v -220 c 0,-5.8985 -1.9531,-10.8594 -5.8203,-14.9219 -3.9062,-4.0234 -8.9453,-6.0156 -15.1172,-6.0156 z m 0,0"
       transform="matrix(0.1,0,0,-0.1,0,500)"
       id="path96" />
    <path
       style="fill:#26429e;fill-opacity:1;fill-rule:nonzero;stroke:none"
       d="m 476.15234,242.72656 -4.02734,-0.80469 v -7.21093 h -5.55859 c -0.58985,0 -1.08985,-0.17578 -1.49219,-0.52344 -0.40235,-0.34766 -0.60156,-0.79297 -0.60156,-1.33203 0,-0.53516 0.19921,-0.97656 0.60156,-1.32813 0.40234,-0.34765 0.90234,-0.52343 1.49219,-0.52343 h 7.53515 c 0.61719,0 1.11328,0.19531 1.48828,0.58593 0.375,0.38672 0.5625,0.89063 0.5625,1.50782 z m -10.51172,4.9961 c -2.17578,0 -4.21093,-0.40625 -6.10546,-1.22657 -1.89454,-0.82031 -3.54688,-1.96093 -4.95704,-3.42578 -1.41015,-1.46484 -2.51171,-3.17578 -3.30468,-5.13672 -0.78907,-1.96093 -1.1875,-4.08203 -1.1875,-6.36718 0,-2.25391 0.39843,-4.35547 1.1875,-6.30469 0.79297,-1.94531 1.89453,-3.65235 3.30468,-5.11719 1.41016,-1.46094 3.0586,-2.60937 4.9375,-3.44141 1.87891,-0.83203 3.92188,-1.25 6.125,-1.25 2.06641,0 3.84375,0.26954 5.33594,0.80469 1.49219,0.53906 2.98828,1.42578 4.49219,2.66016 0.21484,0.16015 0.38281,0.32812 0.50391,0.5039 0.12109,0.17579 0.20312,0.34766 0.24218,0.52344 0.0391,0.17578 0.0586,0.38281 0.0586,0.625 0,0.50781 -0.17969,0.94141 -0.54297,1.28906 -0.36328,0.34766 -0.80469,0.53516 -1.32813,0.5625 -0.52343,0.0273 -1.01562,-0.14843 -1.47265,-0.52343 -0.99219,-0.85938 -2.01953,-1.51563 -3.08203,-1.97266 -1.0625,-0.45703 -2.46094,-0.6875 -4.20704,-0.6875 -1.58593,0 -3.07812,0.32422 -4.47265,0.96875 -1.39844,0.64453 -2.62891,1.53125 -3.6875,2.66016 -1.0625,1.125 -1.88672,2.4375 -2.47656,3.92578 -0.59375,1.49219 -0.88672,3.08203 -0.88672,4.77344 0,1.72265 0.29297,3.32421 0.88672,4.8164 0.58984,1.48828 1.41406,2.80078 2.47656,3.92969 1.05859,1.125 2.28906,2.00781 3.6875,2.63672 1.39453,0.63281 2.88672,0.94922 4.47265,0.94922 1.36719,0 2.66407,-0.23828 3.88672,-0.70703 1.21875,-0.46875 2.39844,-1.1211 3.52344,-1.95313 0.48438,-0.34766 0.96094,-0.50391 1.42969,-0.46484 0.47265,0.0391 0.86719,0.23047 1.1914,0.5664 0.32032,0.33594 0.48047,0.79688 0.48047,1.38672 0,0.26953 -0.0469,0.53125 -0.14062,0.78906 -0.0937,0.25391 -0.26172,0.48829 -0.5,0.70313 -1.42578,1.18359 -2.97266,2.0625 -4.63672,2.64062 -1.66406,0.57422 -3.41016,0.86329 -5.23438,0.86329"
       id="path98" />
    <path
       style="fill:none;stroke:#26429e;stroke-width:11.1765;stroke-linecap:butt;stroke-linejoin:miter;stroke-miterlimit:4;stroke-opacity:1"
       d="m 4761.5234,2572.7344 -40.2734,8.0469 v 72.1093 h -55.5859 c -5.8985,0 -10.8985,1.7578 -14.9219,5.2344 -4.0235,3.4766 -6.0156,7.9297 -6.0156,13.3203 0,5.3516 1.9921,9.7656 6.0156,13.2813 4.0234,3.4765 9.0234,5.2343 14.9219,5.2343 h 75.3515 c 6.1719,0 11.1328,-1.9531 14.8828,-5.8593 3.75,-3.8672 5.625,-8.9063 5.625,-15.0782 z m -105.1172,-49.961 c -21.7578,0 -42.1093,4.0625 -61.0546,12.2657 -18.9454,8.2031 -35.4688,19.6093 -49.5704,34.2578 -14.1015,14.6484 -25.1171,31.7578 -33.0468,51.3672 -7.8907,19.6093 -11.875,40.8203 -11.875,63.6718 0,22.5391 3.9843,43.5547 11.875,63.0469 7.9297,19.4531 18.9453,36.5235 33.0468,51.1719 14.1016,14.6094 30.586,26.0937 49.375,34.4141 18.7891,8.3203 39.2188,12.5 61.25,12.5 20.6641,0 38.4375,-2.6954 53.3594,-8.0469 14.9219,-5.3906 29.8828,-14.2578 44.9219,-26.6016 2.1484,-1.6015 3.8281,-3.2812 5.0391,-5.039 1.2109,-1.7579 2.0312,-3.4766 2.4218,-5.2344 0.3907,-1.7578 0.586,-3.8281 0.586,-6.25 0,-5.0781 -1.7969,-9.4141 -5.4297,-12.8906 -3.6328,-3.4766 -8.0469,-5.3516 -13.2813,-5.625 -5.2343,-0.2735 -10.1562,1.4843 -14.7265,5.2343 -9.9219,8.5938 -20.1953,15.1563 -30.8203,19.7266 -10.625,4.5703 -24.6094,6.875 -42.0704,6.875 -15.8593,0 -30.7812,-3.2422 -44.7265,-9.6875 -13.9844,-6.4453 -26.2891,-15.3125 -36.875,-26.6016 -10.625,-11.25 -18.8672,-24.375 -24.7656,-39.2578 -5.9375,-14.9219 -8.8672,-30.8203 -8.8672,-47.7344 0,-17.2265 2.9297,-33.2421 8.8672,-48.164 5.8984,-14.8828 14.1406,-28.0078 24.7656,-39.2969 10.5859,-11.25 22.8906,-20.0781 36.875,-26.3672 13.9453,-6.3281 28.8672,-9.4922 44.7265,-9.4922 13.6719,0 26.6407,2.3828 38.8672,7.0703 12.1875,4.6875 23.9844,11.211 35.2344,19.5313 4.8438,3.4766 9.6094,5.0391 14.2969,4.6484 4.7265,-0.3906 8.6719,-2.3047 11.914,-5.664 3.2032,-3.3594 4.8047,-7.9688 4.8047,-13.8672 0,-2.6953 -0.4687,-5.3125 -1.4062,-7.8906 -0.9375,-2.5391 -2.6172,-4.8829 -5,-7.0313 -14.2578,-11.8359 -29.7266,-20.625 -46.3672,-26.4062 -16.6406,-5.7422 -34.1016,-8.6329 -52.3438,-8.6329 z m 0,0"
       transform="matrix(0.1,0,0,-0.1,0,500)"
       id="path100" />
    <path
       style="fill:#7fca26;fill-opacity:1;fill-rule:nonzero;stroke:none"
       d="m 87.453125,278.51172 c -1.75,0 -3.386719,-0.32813 -4.910156,-0.98828 -1.523438,-0.66016 -2.851563,-1.57813 -3.984375,-2.75782 -1.136719,-1.17578 -2.023438,-2.55078 -2.660156,-4.1289 -0.636719,-1.57813 -0.953126,-3.28516 -0.953126,-5.1211 0,-1.8164 0.316407,-3.50781 0.953126,-5.07421 0.636718,-1.56641 1.523437,-2.9375 2.660156,-4.11719 1.132812,-1.17578 2.457031,-2.09766 3.96875,-2.76953 1.511718,-0.66797 3.15625,-1.00391 4.925781,-1.00391 1.664063,0 3.097656,0.21484 4.296875,0.64844 1.199219,0.43359 2.402344,1.14453 3.613281,2.13672 0.171875,0.13281 0.308594,0.26562 0.40625,0.40625 0.09375,0.14062 0.160157,0.28125 0.195313,0.42187 0.03125,0.14063 0.04687,0.3086 0.04687,0.5 0,0.41406 -0.148438,0.75391 -0.4375,1.02344 -0.292969,0.26953 -0.644531,0.42187 -1.054688,0.45312 -0.410156,0.0312 -0.808593,-0.10156 -1.199219,-0.40625 -0.796874,-0.6914 -1.625,-1.21875 -2.476562,-1.58593 -0.855469,-0.36719 -1.984375,-0.55078 -3.390625,-0.55078 -1.273437,0 -2.472656,0.25781 -3.597656,0.77734 -1.121094,0.51562 -2.109375,1.23047 -2.964844,2.14062 -0.855469,0.90625 -1.519531,1.96094 -1.992187,3.16016 -0.476563,1.19531 -0.714844,2.47656 -0.714844,3.83984 0,1.38282 0.238281,2.67188 0.714844,3.8711 0.472656,1.19922 1.136718,2.2539 1.992187,3.16015 0.855469,0.90625 1.84375,1.61719 2.964844,2.125 1.125,0.50782 2.324219,0.76172 3.597656,0.76172 1.101563,0 2.144531,-0.1914 3.128906,-0.57031 0.984375,-0.375 1.929688,-0.89844 2.835938,-1.57031 0.390625,-0.28125 0.773437,-0.40625 1.152343,-0.3711 0.375,0.0312 0.695313,0.1836 0.953126,0.45313 0.261718,0.26953 0.390624,0.64062 0.390624,1.11719 0,0.21875 -0.04297,0.42968 -0.128906,0.63281 -0.08594,0.20312 -0.214844,0.39453 -0.390625,0.56641 -1.167969,0.92968 -2.414062,1.63281 -3.742187,2.10937 -1.328125,0.47266 -2.730469,0.71094 -4.199219,0.71094"
       id="path102" />
    <path
       style="fill:#7fca26;fill-opacity:1;fill-rule:nonzero;stroke:none"
       d="m 114.42969,275.46484 c 1.40625,0 2.69531,-0.2539 3.875,-0.76172 1.17578,-0.50781 2.19922,-1.21093 3.0625,-2.10546 0.86328,-0.89844 1.52734,-1.95313 1.99219,-3.16016 0.46484,-1.21094 0.69921,-2.51953 0.69921,-3.92188 0,-1.40625 -0.23437,-2.71093 -0.69921,-3.92187 -0.46485,-1.21094 -1.12891,-2.26563 -1.99219,-3.16016 -0.86328,-0.89843 -1.88672,-1.59375 -3.0625,-2.08984 -1.17969,-0.5 -2.46875,-0.74609 -3.875,-0.74609 -1.40235,0 -2.69531,0.24609 -3.8711,0.74609 -1.17968,0.49609 -2.19531,1.19141 -3.04687,2.08984 -0.85547,0.89453 -1.51953,1.94922 -1.99219,3.16016 -0.47656,1.21094 -0.71484,2.51562 -0.71484,3.92187 0,1.40235 0.23828,2.71094 0.71484,3.92188 0.47266,1.20703 1.13672,2.26172 1.99219,3.16016 0.85156,0.89453 1.86719,1.59765 3.04687,2.10546 1.17579,0.50782 2.46875,0.76172 3.8711,0.76172 z m 0,3.04688 c -1.90235,0 -3.64063,-0.32031 -5.21875,-0.95703 -1.57422,-0.63672 -2.9336,-1.53516 -4.06641,-2.69141 -1.13281,-1.15234 -2.01562,-2.52734 -2.64062,-4.11328 -0.62891,-1.58984 -0.94141,-3.33594 -0.94141,-5.23438 0,-1.90234 0.3125,-3.64062 0.94141,-5.21875 0.625,-1.57812 1.50781,-2.94531 2.64062,-4.10156 1.13281,-1.15625 2.49219,-2.05078 4.06641,-2.6875 1.57812,-0.64062 3.3164,-0.95703 5.21875,-0.95703 1.90234,0 3.63672,0.31641 5.20312,0.95703 1.56641,0.63672 2.92188,1.53125 4.06641,2.6875 1.14844,1.15625 2.03125,2.52344 2.66016,4.10156 0.625,1.57813 0.9375,3.31641 0.9375,5.21875 0,1.89844 -0.3125,3.64454 -0.9375,5.23438 -0.62891,1.58594 -1.51172,2.96094 -2.66016,4.11328 -1.14453,1.15625 -2.5,2.05469 -4.06641,2.69141 -1.5664,0.63672 -3.30078,0.95703 -5.20312,0.95703"
       id="path104" />
    <path
       style="fill:#7fca26;fill-opacity:1;fill-rule:nonzero;stroke:none"
       d="m 136.83984,278.1875 c -0.47656,0 -0.875,-0.16406 -1.19922,-0.48828 -0.32421,-0.32031 -0.48437,-0.72266 -0.48437,-1.19531 v -21.94532 c 0,-0.49609 0.16016,-0.90234 0.48437,-1.21484 0.32422,-0.3125 0.72266,-0.46875 1.19922,-0.46875 0.64844,0 1.14453,0.30078 1.49219,0.90625 l 10.14453,20.32031 h -1.03906 l 9.88672,-20.32031 c 0.34765,-0.60547 0.84375,-0.90625 1.49219,-0.90625 0.47265,0 0.875,0.15625 1.19921,0.46875 0.32422,0.3125 0.48438,0.71875 0.48438,1.21484 v 21.94532 c 0,0.47265 -0.16797,0.875 -0.5,1.19531 -0.33594,0.32422 -0.73047,0.48828 -1.18359,0.48828 -0.47657,0 -0.875,-0.16406 -1.19922,-0.48828 -0.32422,-0.32031 -0.48828,-0.72266 -0.48828,-1.19531 v -17.27735 l 0.64843,-0.16406 -8.49218,17.30859 c -0.36719,0.5625 -0.85157,0.84375 -1.45704,0.84375 -0.71484,0 -1.23046,-0.33203 -1.55468,-1.0039 l -8.39453,-16.82032 0.64453,-0.16406 v 17.27735 c 0,0.47265 -0.16016,0.875 -0.48438,1.19531 -0.32422,0.32422 -0.72265,0.48828 -1.19922,0.48828"
       id="path106" />
    <path
       style="fill:#7fca26;fill-opacity:1;fill-rule:nonzero;stroke:none"
       d="m 172.96484,266.29297 h 4.79688 c 0.99219,0 1.86719,-0.21875 2.625,-0.64844 0.7539,-0.43359 1.34765,-1.02734 1.78125,-1.78516 0.43359,-0.7539 0.64844,-1.61718 0.64844,-2.58984 0,-1.03906 -0.21485,-1.95312 -0.64844,-2.74219 -0.4336,-0.78515 -1.02735,-1.40625 -1.78125,-1.86328 -0.75781,-0.45312 -1.63281,-0.67969 -2.625,-0.67969 h -4.79688 z m -1.6875,11.89453 c -0.47656,0 -0.875,-0.16406 -1.19922,-0.48828 -0.32421,-0.32031 -0.48437,-0.72266 -0.48437,-1.19531 v -21.94532 c 0,-0.49609 0.16016,-0.90234 0.48437,-1.21484 0.32422,-0.3125 0.72266,-0.46875 1.19922,-0.46875 h 6.48438 c 1.62109,0 3.05469,0.35547 4.30859,1.06641 1.25391,0.71484 2.23047,1.70312 2.9336,2.96875 0.70312,1.26171 1.05468,2.71875 1.05468,4.35937 0,1.57813 -0.35156,2.98047 -1.05468,4.21094 -0.70313,1.23437 -1.67969,2.19531 -2.9336,2.88672 -1.2539,0.6914 -2.6875,1.03515 -4.30859,1.03515 h -4.79688 v 7.10157 c 0,0.47265 -0.16015,0.875 -0.47265,1.19531 -0.3125,0.32422 -0.71875,0.48828 -1.21485,0.48828"
       id="path108" />
    <path
       style="fill:#7fca26;fill-opacity:1;fill-rule:nonzero;stroke:none"
       d="m 194.29687,278.1875 c -0.47656,0 -0.875,-0.16406 -1.19921,-0.48828 -0.32422,-0.32031 -0.48829,-0.72266 -0.48829,-1.19531 v -21.94532 c 0,-0.49609 0.16407,-0.90234 0.48829,-1.21484 0.32421,-0.3125 0.72265,-0.46875 1.19921,-0.46875 h 14.64844 c 0.4961,0 0.89844,0.14453 1.19922,0.4375 0.30469,0.28906 0.45703,0.67578 0.45703,1.14844 0,0.45312 -0.15234,0.82031 -0.45703,1.10156 -0.30078,0.28125 -0.70312,0.42187 -1.19922,0.42187 h -12.96484 v 7.875 h 9.30469 c 0.49609,0 0.89453,0.14844 1.19921,0.44141 0.30079,0.28906 0.45313,0.66406 0.45313,1.11719 0,0.45312 -0.15234,0.82422 -0.45313,1.11719 -0.30468,0.29296 -0.70312,0.4375 -1.19921,0.4375 h -9.30469 v 8.10156 h 12.96484 c 0.4961,0 0.89844,0.14453 1.19922,0.42187 0.30469,0.28125 0.45703,0.64844 0.45703,1.10547 0,0.47266 -0.15234,0.85547 -0.45703,1.14844 -0.30078,0.29297 -0.70312,0.4375 -1.19922,0.4375 h -14.64844"
       id="path110" />
    <path
       style="fill:#7fca26;fill-opacity:1;fill-rule:nonzero;stroke:none"
       d="m 226.53516,278.1875 c -0.47266,0 -0.875,-0.16406 -1.19922,-0.48828 -0.32422,-0.32031 -0.48438,-0.72266 -0.48438,-1.19531 V 252.875 h 3.3711 v 23.62891 c 0,0.47265 -0.16407,0.875 -0.48829,1.19531 -0.32421,0.32422 -0.72265,0.48828 -1.19921,0.48828 z m -8.6836,-22.20313 c -0.45703,0 -0.82812,-0.14453 -1.12109,-0.4375 -0.29297,-0.28906 -0.4375,-0.66406 -0.4375,-1.11718 0,-0.45313 0.14453,-0.82813 0.4375,-1.11719 0.29297,-0.29297 0.66406,-0.4375 1.12109,-0.4375 h 17.33985 c 0.45312,0 0.82421,0.14453 1.11718,0.4375 0.29297,0.28906 0.4375,0.66406 0.4375,1.11719 0,0.45312 -0.14453,0.82812 -0.4375,1.11718 -0.29297,0.29297 -0.66406,0.4375 -1.11718,0.4375 h -17.33985"
       id="path112" />
    <path
       style="fill:#7fca26;fill-opacity:1;fill-rule:nonzero;stroke:none"
       d="m 244.96875,278.1875 c -0.47656,0 -0.875,-0.16406 -1.19922,-0.48828 -0.32422,-0.32031 -0.48828,-0.72266 -0.48828,-1.19531 v -21.94532 c 0,-0.49609 0.16406,-0.90234 0.48828,-1.21484 0.32422,-0.3125 0.72266,-0.46875 1.19922,-0.46875 0.49609,0 0.90234,0.15625 1.21484,0.46875 0.3125,0.3125 0.46875,0.71875 0.46875,1.21484 v 21.94532 c 0,0.47265 -0.15625,0.875 -0.46875,1.19531 -0.3125,0.32422 -0.71875,0.48828 -1.21484,0.48828"
       id="path114" />
    <path
       style="fill:#7fca26;fill-opacity:1;fill-rule:nonzero;stroke:none"
       d="m 263.44922,278.1875 c -0.47656,0 -0.875,-0.16406 -1.19922,-0.48828 -0.32422,-0.32031 -0.48438,-0.72266 -0.48438,-1.19531 V 252.875 h 3.3711 v 23.62891 c 0,0.47265 -0.16406,0.875 -0.48828,1.19531 -0.32422,0.32422 -0.72266,0.48828 -1.19922,0.48828 z m -8.6875,-22.20313 c -0.45313,0 -0.82422,-0.14453 -1.11719,-0.4375 -0.29297,-0.28906 -0.4375,-0.66406 -0.4375,-1.11718 0,-0.45313 0.14453,-0.82813 0.4375,-1.11719 0.29297,-0.29297 0.66406,-0.4375 1.11719,-0.4375 h 17.34375 c 0.45312,0 0.82422,0.14453 1.11719,0.4375 0.29296,0.28906 0.4375,0.66406 0.4375,1.11719 0,0.45312 -0.14454,0.82812 -0.4375,1.11718 -0.29297,0.29297 -0.66407,0.4375 -1.11719,0.4375 h -17.34375"
       id="path116" />
    <path
       style="fill:#7fca26;fill-opacity:1;fill-rule:nonzero;stroke:none"
       d="m 281.88281,278.1875 c -0.47656,0 -0.875,-0.16406 -1.19922,-0.48828 -0.32422,-0.32031 -0.48828,-0.72266 -0.48828,-1.19531 v -21.94532 c 0,-0.49609 0.16406,-0.90234 0.48828,-1.21484 0.32422,-0.3125 0.72266,-0.46875 1.19922,-0.46875 0.4961,0 0.90235,0.15625 1.21485,0.46875 0.3125,0.3125 0.46875,0.71875 0.46875,1.21484 v 21.94532 c 0,0.47265 -0.15625,0.875 -0.46875,1.19531 -0.3125,0.32422 -0.71875,0.48828 -1.21485,0.48828"
       id="path118" />
    <path
       style="fill:#7fca26;fill-opacity:1;fill-rule:nonzero;stroke:none"
       d="m 304.37109,275.46484 c 1.40625,0 2.69532,-0.2539 3.875,-0.76172 1.17578,-0.50781 2.19922,-1.21093 3.0625,-2.10546 0.86328,-0.89844 1.52735,-1.95313 1.99219,-3.16016 0.46484,-1.21094 0.69922,-2.51953 0.69922,-3.92188 0,-1.40625 -0.23438,-2.71093 -0.69922,-3.92187 -0.46484,-1.21094 -1.12891,-2.26563 -1.99219,-3.16016 -0.86328,-0.89843 -1.88672,-1.59375 -3.0625,-2.08984 -1.17968,-0.5 -2.46875,-0.74609 -3.875,-0.74609 -1.40234,0 -2.69531,0.24609 -3.87109,0.74609 -1.17969,0.49609 -2.19531,1.19141 -3.04688,2.08984 -0.85546,0.89453 -1.51953,1.94922 -1.99218,3.16016 -0.47657,1.21094 -0.71485,2.51562 -0.71485,3.92187 0,1.40235 0.23828,2.71094 0.71485,3.92188 0.47265,1.20703 1.13672,2.26172 1.99218,3.16016 0.85157,0.89453 1.86719,1.59765 3.04688,2.10546 1.17578,0.50782 2.46875,0.76172 3.87109,0.76172 z m 0,3.04688 c -1.90234,0 -3.64062,-0.32031 -5.21875,-0.95703 -1.57812,-0.63672 -2.92968,-1.53516 -4.0664,-2.69141 -1.13282,-1.15234 -2.01563,-2.52734 -2.64063,-4.11328 -0.6289,-1.58984 -0.9414,-3.33594 -0.9414,-5.23438 0,-1.90234 0.3125,-3.64062 0.9414,-5.21875 0.625,-1.57812 1.50781,-2.94531 2.64063,-4.10156 1.13672,-1.15625 2.48828,-2.05078 4.0664,-2.6875 1.57813,-0.64062 3.31641,-0.95703 5.21875,-0.95703 1.90235,0 3.63672,0.31641 5.20313,0.95703 1.5664,0.63672 2.92187,1.53125 4.0664,2.6875 1.14454,1.15625 2.03125,2.52344 2.66016,4.10156 0.625,1.57813 0.9375,3.31641 0.9375,5.21875 0,1.89844 -0.3125,3.64454 -0.9375,5.23438 -0.62891,1.58594 -1.51562,2.96094 -2.66016,4.11328 -1.14453,1.15625 -2.5,2.05469 -4.0664,2.69141 -1.56641,0.63672 -3.30078,0.95703 -5.20313,0.95703"
       id="path120" />
    <path
       style="fill:#7fca26;fill-opacity:1;fill-rule:nonzero;stroke:none"
       d="m 326.75,278.1875 c -0.47656,0 -0.87109,-0.16406 -1.18359,-0.48828 -0.3125,-0.32031 -0.46875,-0.72266 -0.46875,-1.19531 v -21.94532 c 0,-0.49609 0.15625,-0.90234 0.46875,-1.21484 0.3125,-0.3125 0.70703,-0.46875 1.18359,-0.46875 0.51562,0 0.94922,0.20312 1.29687,0.61328 l 14.12891,18.80078 v -17.73047 c 0,-0.49609 0.16406,-0.90234 0.48828,-1.21484 0.32422,-0.3125 0.72266,-0.46875 1.19922,-0.46875 0.49609,0 0.89453,0.15625 1.19922,0.46875 0.30078,0.3125 0.45312,0.71875 0.45312,1.21484 v 21.94532 c 0,0.47265 -0.15234,0.875 -0.45312,1.19531 -0.30469,0.32422 -0.70313,0.48828 -1.19922,0.48828 -0.21875,0 -0.44922,-0.0469 -0.69922,-0.14453 -0.24609,-0.0977 -0.44531,-0.24219 -0.59765,-0.4375 l -14.13282,-18.80078 v 17.69922 c 0,0.47265 -0.15625,0.875 -0.46875,1.19531 -0.3125,0.32422 -0.71875,0.48828 -1.21484,0.48828"
       id="path122" />
    <path
       style="fill:#7fca26;fill-opacity:1;fill-rule:nonzero;stroke:none"
       d="m 365.51953,297.87891 c -0.86719,0 -1.58203,-0.29297 -2.15625,-0.88282 -0.56641,-0.58984 -0.85156,-1.30078 -0.85156,-2.125 0,-0.86328 0.27344,-1.57031 0.82422,-2.125 l 16.7539,-19.58593 c 1.17969,-1.375 2.09375,-2.67188 2.74219,-3.89063 0.64844,-1.21875 0.97656,-2.37891 0.97656,-3.48047 0,-1.73047 -0.29687,-3.22656 -0.88672,-4.48437 -0.58984,-1.25782 -1.4375,-2.23438 -2.53515,-2.92188 -1.10547,-0.6875 -2.41797,-1.03125 -3.95313,-1.03125 -1.49609,0 -2.84375,0.38281 -4.04297,1.15235 -1.19921,0.76562 -2.14453,1.78906 -2.83203,3.0664 -0.6875,1.27735 -1.03125,2.6836 -1.03125,4.21875 0,0.78516 -0.28515,1.47266 -0.85547,2.0625 -0.57031,0.58985 -1.28906,0.88672 -2.15234,0.88672 -0.82812,0 -1.53516,-0.29687 -2.125,-0.88672 -0.58984,-0.58984 -0.88281,-1.27734 -0.88281,-2.0625 0,-2.67578 0.60547,-5.0625 1.82812,-7.16797 1.21875,-2.10547 2.87891,-3.76562 4.98438,-4.98437 2.10547,-1.21875 4.47265,-1.82813 7.10937,-1.82813 2.67188,0 4.99219,0.57032 6.96094,1.70703 1.96484,1.14063 3.48828,2.75391 4.57031,4.83985 1.08203,2.08203 1.625,4.5625 1.625,7.43359 0,1.25781 -0.26953,2.53516 -0.79687,3.83203 -0.53125,1.30078 -1.19922,2.53907 -2.00781,3.71875 -0.80469,1.17969 -1.6211,2.24219 -2.44532,3.1836 l -13.51172,15.33984 h 16.51954 c 0.86328,0 1.58984,0.30469 2.17968,0.91406 0.58985,0.60938 0.88672,1.3086 0.88672,2.09375 0,0.82422 -0.29687,1.53516 -0.88672,2.125 -0.58984,0.58985 -1.3164,0.88282 -2.17968,0.88282 h -21.82813"
       id="path124" />
    <path
       style="fill:#7fca26;fill-opacity:1;fill-rule:nonzero;stroke:none"
       d="m 409.66406,291.74219 c 1.8086,0 3.30469,-0.73438 4.48047,-2.21094 1.17969,-1.47266 2.06641,-3.48828 2.65625,-6.04688 0.58984,-2.55468 0.88672,-5.44531 0.88672,-8.67187 0,-3.22266 -0.29688,-6.11328 -0.88672,-8.67188 -0.58984,-2.55468 -1.47656,-4.58203 -2.65625,-6.07421 -1.17578,-1.4961 -2.67187,-2.24219 -4.48047,-2.24219 -1.80859,0 -3.30469,0.73828 -4.48437,2.21094 -1.17969,1.47656 -2.06641,3.49218 -2.65625,6.04687 -0.58594,2.55859 -0.88282,5.46875 -0.88282,8.73047 0,3.26562 0.29688,6.17578 0.88282,8.73437 0.58984,2.55469 1.48437,4.5586 2.6875,6.01563 1.19531,1.45312 2.68359,2.17969 4.45312,2.17969 z m 0,6.13672 c -2.98828,0 -5.53515,-0.91407 -7.64062,-2.74219 -2.10547,-1.82813 -3.70703,-4.46094 -4.8086,-7.90625 -1.10156,-3.44141 -1.65234,-7.57813 -1.65234,-12.41797 0,-4.83594 0.55078,-8.97266 1.65234,-12.41797 1.10157,-3.44141 2.70313,-6.07422 4.8086,-7.90625 2.10547,-1.82812 4.65234,-2.74219 7.64062,-2.74219 2.98828,0 5.53516,0.9375 7.64063,2.80469 2.10156,1.86719 3.70312,4.51953 4.80468,7.96484 1.10157,3.4375 1.65235,7.53907 1.65235,12.29688 0,4.75781 -0.55078,8.85937 -1.65235,12.30078 -1.10156,3.44141 -2.70312,6.09766 -4.80468,7.96484 -2.10547,1.86719 -4.65235,2.80079 -7.64063,2.80079"
       id="path126" />
    <path
       style="fill:#7fca26;fill-opacity:1;fill-rule:nonzero;stroke:none"
       d="m 432.55859,297.87891 c -0.86718,0 -1.58203,-0.29297 -2.15625,-0.88282 -0.5664,-0.58984 -0.85156,-1.30078 -0.85156,-2.125 0,-0.86328 0.27344,-1.57031 0.82422,-2.125 l 16.75391,-19.58593 c 1.17968,-1.375 2.09375,-2.67188 2.74218,-3.89063 0.64844,-1.21875 0.97657,-2.37891 0.97657,-3.48047 0,-1.73047 -0.29688,-3.22656 -0.88672,-4.48437 -0.58985,-1.25782 -1.4375,-2.23438 -2.53516,-2.92188 -1.10547,-0.6875 -2.41797,-1.03125 -3.95312,-1.03125 -1.4961,0 -2.84375,0.38281 -4.04297,1.15235 -1.19922,0.76562 -2.14453,1.78906 -2.83203,3.0664 -0.6875,1.27735 -1.03125,2.6836 -1.03125,4.21875 0,0.78516 -0.28516,1.47266 -0.85547,2.0625 -0.57032,0.58985 -1.28907,0.88672 -2.15235,0.88672 -0.82812,0 -1.53515,-0.29687 -2.125,-0.88672 -0.58984,-0.58984 -0.88281,-1.27734 -0.88281,-2.0625 0,-2.67578 0.60547,-5.0625 1.82813,-7.16797 1.21875,-2.10547 2.8789,-3.76562 4.98437,-4.98437 2.10547,-1.21875 4.47266,-1.82813 7.10938,-1.82813 2.67187,0 4.99218,0.57032 6.96093,1.70703 1.96485,1.14063 3.48828,2.75391 4.57032,4.83985 1.08203,2.08203 1.625,4.5625 1.625,7.43359 0,1.25781 -0.26954,2.53516 -0.79688,3.83203 -0.53125,1.30078 -1.19922,2.53907 -2.00781,3.71875 -0.80469,1.17969 -1.6211,2.24219 -2.44531,3.1836 l -13.51172,15.33984 h 16.51953 c 0.86328,0 1.59375,0.30469 2.17969,0.91406 0.58984,0.60938 0.88671,1.3086 0.88671,2.09375 0,0.82422 -0.29687,1.53516 -0.88671,2.125 -0.58594,0.58985 -1.31641,0.88282 -2.17969,0.88282 h -21.82813"
       id="path128" />
    <path
       style="fill:#7fca26;fill-opacity:1;fill-rule:nonzero;stroke:none"
       d="m 473.94141,297.87891 c -0.78907,0 -1.47657,-0.29297 -2.06641,-0.88282 -0.58984,-0.58984 -0.88281,-1.30078 -0.88281,-2.125 v -35.98437 l -4.3086,1.82812 c -0.66797,0.27344 -1.29687,0.41407 -1.88672,0.41407 -0.86328,0 -1.58203,-0.27735 -2.15234,-0.82813 -0.57031,-0.55078 -0.85547,-1.25781 -0.85547,-2.12109 0,-0.62891 0.15625,-1.20313 0.47266,-1.71094 0.3125,-0.51172 0.80469,-0.88672 1.47265,-1.12109 l 9.20313,-3.30469 c 0.19922,-0.0781 0.39453,-0.13672 0.58984,-0.17969 0.19922,-0.0352 0.375,-0.0547 0.53125,-0.0547 0.90625,0 1.625,0.28516 2.15235,0.85157 0.53125,0.57031 0.79687,1.30859 0.79687,2.21484 v 39.99609 c 0,0.82422 -0.29297,1.53516 -0.88281,2.125 -0.58984,0.58985 -1.32031,0.88282 -2.18359,0.88282"
       id="path130" />
    <path
       style="fill:#7fca26;fill-opacity:1;fill-rule:nonzero;stroke:none"
       d="m 412.21094,242.26562 c 0.52343,0.52344 0.78515,1.14844 0.78515,1.875 0,0.72266 -0.26172,1.34766 -0.78515,1.8711 -0.52344,0.52344 -1.14844,0.78906 -1.875,0.78906 -0.72657,0 -1.35157,-0.26562 -1.875,-0.78906 -0.52344,-0.52344 -0.78516,-1.14844 -0.78516,-1.8711 0,-0.72656 0.26172,-1.35156 0.78516,-1.875 0.52343,-0.52343 1.14843,-0.78515 1.875,-0.78515 0.72656,0 1.35156,0.26172 1.875,0.78515"
       id="path132" />
    <path
       style="fill:none;stroke:#7fca26;stroke-width:11.1765;stroke-linecap:butt;stroke-linejoin:miter;stroke-miterlimit:4;stroke-opacity:1"
       d="m 4122.1094,2577.3438 c 5.2343,-5.2344 7.8515,-11.4844 7.8515,-18.75 0,-7.2266 -2.6172,-13.4766 -7.8515,-18.711 -5.2344,-5.2344 -11.4844,-7.8906 -18.75,-7.8906 -7.2657,0 -13.5156,2.6562 -18.75,7.8906 -5.2344,5.2344 -7.8516,11.4844 -7.8516,18.711 0,7.2656 2.6172,13.5156 7.8516,18.75 5.2344,5.2343 11.4843,7.8515 18.75,7.8515 7.2656,0 13.5156,-2.6172 18.75,-7.8515 z m 0,0"
       transform="matrix(0.1,0,0,-0.1,0,500)"
       id="path134" />
    <path
       style="fill:#26429e;fill-opacity:1;fill-rule:nonzero;stroke:none"
       d="m 411.80469,216.44141 c 0.39062,0.38671 0.58593,0.8789 0.58593,1.46875 v 17.92968 c 0,0.61719 -0.19531,1.11328 -0.58593,1.49219 -0.38672,0.375 -0.87891,0.5625 -1.46875,0.5625 -0.61719,0 -1.11328,-0.1875 -1.48828,-0.5625 -0.37891,-0.37891 -0.56641,-0.875 -0.56641,-1.49219 v -17.92968 c 0,-0.58985 0.1875,-1.08204 0.56641,-1.46875 0.375,-0.39063 0.87109,-0.58594 1.48828,-0.58594 0.58984,0 1.08203,0.19531 1.46875,0.58594"
       id="path136" />
    <path
       style="fill:none;stroke:#26429e;stroke-width:11.1765;stroke-linecap:butt;stroke-linejoin:miter;stroke-miterlimit:4;stroke-opacity:1"
       d="m 4118.0469,2835.5859 c 3.9062,-3.8671 5.8593,-8.789 5.8593,-14.6875 v -179.2968 c 0,-6.1719 -1.9531,-11.1328 -5.8593,-14.9219 -3.8672,-3.75 -8.7891,-5.625 -14.6875,-5.625 -6.1719,0 -11.1328,1.875 -14.8828,5.625 -3.7891,3.7891 -5.6641,8.75 -5.6641,14.9219 v 179.2968 c 0,5.8985 1.875,10.8204 5.6641,14.6875 3.75,3.9063 8.7109,5.8594 14.8828,5.8594 5.8984,0 10.8203,-1.9531 14.6875,-5.8594 z m 0,0"
       transform="matrix(0.1,0,0,-0.1,0,500)"
       id="path138" />
    <path
       style="fill:#26429e;fill-opacity:1;fill-rule:nonzero;stroke:none"
       d="m 494.80859,327.68359 h -2.23437 V 193.5625 h 2.23437 v 134.12109"
       id="path140" />
  </g>
</svg>
